<svg xmlns="http://www.w3.org/2000/svg" width="1382" height="580" viewBox="0 0 1382 580" font-family="Georgia, serif">
<rect width="1382" height="580" fill="#f4efe4"/>
<defs><marker id="arw-2E5A8C" markerWidth="7" markerHeight="7" refX="6" refY="3" orient="auto"><path d="M0,0 L6,3 L0,6 Z" fill="#2E5A8C"/></marker><marker id="arw-9E2B25" markerWidth="7" markerHeight="7" refX="6" refY="3" orient="auto"><path d="M0,0 L6,3 L0,6 Z" fill="#9E2B25"/></marker><marker id="arw-1c9c8c" markerWidth="7" markerHeight="7" refX="6" refY="3" orient="auto"><path d="M0,0 L6,3 L0,6 Z" fill="#1c9c8c"/></marker><marker id="arw-C6A024" markerWidth="7" markerHeight="7" refX="6" refY="3" orient="auto"><path d="M0,0 L6,3 L0,6 Z" fill="#C6A024"/></marker><marker id="arw-6A3D8F" markerWidth="7" markerHeight="7" refX="6" refY="3" orient="auto"><path d="M0,0 L6,3 L0,6 Z" fill="#6A3D8F"/></marker><marker id="arw-CC6A1A" markerWidth="7" markerHeight="7" refX="6" refY="3" orient="auto"><path d="M0,0 L6,3 L0,6 Z" fill="#CC6A1A"/></marker><marker id="arw-3a7d3a" markerWidth="7" markerHeight="7" refX="6" refY="3" orient="auto"><path d="M0,0 L6,3 L0,6 Z" fill="#3a7d3a"/></marker><marker id="arw-b5347a" markerWidth="7" markerHeight="7" refX="6" refY="3" orient="auto"><path d="M0,0 L6,3 L0,6 Z" fill="#b5347a"/></marker><marker id="arw-2b6f9e" markerWidth="7" markerHeight="7" refX="6" refY="3" orient="auto"><path d="M0,0 L6,3 L0,6 Z" fill="#2b6f9e"/></marker><marker id="arw-8a6d1a" markerWidth="7" markerHeight="7" refX="6" refY="3" orient="auto"><path d="M0,0 L6,3 L0,6 Z" fill="#8a6d1a"/></marker><marker id="arw-5f5647" markerWidth="7" markerHeight="7" refX="6" refY="3" orient="auto"><path d="M0,0 L6,3 L0,6 Z" fill="#5f5647"/></marker><marker id="arw-7a2ea0" markerWidth="7" markerHeight="7" refX="6" refY="3" orient="auto"><path d="M0,0 L6,3 L0,6 Z" fill="#7a2ea0"/></marker><marker id="arw-0f8a7e" markerWidth="7" markerHeight="7" refX="6" refY="3" orient="auto"><path d="M0,0 L6,3 L0,6 Z" fill="#0f8a7e"/></marker><marker id="arw-a83232" markerWidth="7" markerHeight="7" refX="6" refY="3" orient="auto"><path d="M0,0 L6,3 L0,6 Z" fill="#a83232"/></marker><marker id="arw-8f8672" markerWidth="7" markerHeight="7" refX="6" refY="3" orient="auto"><path d="M0,0 L6,3 L0,6 Z" fill="#8f8672"/></marker></defs>
<text x="30" y="34" font-size="20" font-weight="bold" fill="#2b2620">Holding Paths</text>
<path d="M148,112 L172,112" fill="none" stroke="#f4efe4" stroke-width="4.6" opacity="1"/>
<path d="M148,112 L172,112" fill="none" stroke="#8f8672" stroke-width="1.6" opacity="0.95"/>
<path d="M172,112 L172,148" fill="none" stroke="#f4efe4" stroke-width="4.6" opacity="1"/>
<path d="M172,112 L172,148" fill="none" stroke="#8f8672" stroke-width="1.6" opacity="0.95"/>
<path d="M172,112 L196,112" fill="none" stroke="#f4efe4" stroke-width="4.6" opacity="1"/>
<path d="M172,112 L196,112" fill="none" stroke="#8f8672" stroke-width="1.6" opacity="0.95" marker-end="url(#arw-8f8672)"/>
<path d="M172,148 L368,148" fill="none" stroke="#f4efe4" stroke-width="4.6" opacity="1"/>
<path d="M172,148 L368,148" fill="none" stroke="#8f8672" stroke-width="1.6" opacity="0.95" marker-end="url(#arw-8f8672)"/>
<path d="M172,148 L196,148" fill="none" stroke="#f4efe4" stroke-width="4.6" opacity="1"/>
<path d="M172,148 L196,148" fill="none" stroke="#8f8672" stroke-width="1.6" opacity="0.95" marker-end="url(#arw-8f8672)"/>
<path d="M320,112 L344,112" fill="none" stroke="#f4efe4" stroke-width="4.6" opacity="1"/>
<path d="M320,112 L344,112" fill="none" stroke="#8f8672" stroke-width="1.6" opacity="0.95"/>
<path d="M344,76 L344,184" fill="none" stroke="#f4efe4" stroke-width="4.6" opacity="1"/>
<path d="M344,76 L344,184" fill="none" stroke="#8f8672" stroke-width="1.6" opacity="0.95"/>
<path d="M344,76 L540,76" fill="none" stroke="#f4efe4" stroke-width="4.6" opacity="1"/>
<path d="M344,76 L540,76" fill="none" stroke="#8f8672" stroke-width="1.6" opacity="0.95" marker-end="url(#arw-8f8672)"/>
<path d="M344,184 L368,184" fill="none" stroke="#f4efe4" stroke-width="4.6" opacity="1"/>
<path d="M344,184 L368,184" fill="none" stroke="#8f8672" stroke-width="1.6" opacity="0.95" marker-end="url(#arw-8f8672)"/>
<path d="M344,112 L712,112" fill="none" stroke="#f4efe4" stroke-width="4.6" opacity="1"/>
<path d="M344,112 L712,112" fill="none" stroke="#8f8672" stroke-width="1.6" opacity="0.95" marker-end="url(#arw-8f8672)"/>
<path d="M320,148 L367,148" fill="none" stroke="#f4efe4" stroke-width="4.6" opacity="1"/>
<path d="M320,148 L367,148" fill="none" stroke="#8f8672" stroke-width="1.6" opacity="0.95" marker-end="url(#arw-8f8672)"/>
<path d="M492,148 L539,148" fill="none" stroke="#f4efe4" stroke-width="4.6" opacity="1"/>
<path d="M492,148 L539,148" fill="none" stroke="#8f8672" stroke-width="1.6" opacity="0.95" marker-end="url(#arw-8f8672)"/>
<path d="M492,184 L539,184" fill="none" stroke="#f4efe4" stroke-width="4.6" opacity="1"/>
<path d="M492,184 L539,184" fill="none" stroke="#8f8672" stroke-width="1.6" opacity="0.95" marker-end="url(#arw-8f8672)"/>
<path d="M664,148 L711,148" fill="none" stroke="#f4efe4" stroke-width="4.6" opacity="1"/>
<path d="M664,148 L711,148" fill="none" stroke="#8f8672" stroke-width="1.6" opacity="0.95" marker-end="url(#arw-8f8672)"/>
<path d="M664,184 L711,184" fill="none" stroke="#f4efe4" stroke-width="4.6" opacity="1"/>
<path d="M664,184 L711,184" fill="none" stroke="#8f8672" stroke-width="1.6" opacity="0.95" marker-end="url(#arw-8f8672)"/>
<path d="M664,76 L711,76" fill="none" stroke="#f4efe4" stroke-width="4.6" opacity="1"/>
<path d="M664,76 L711,76" fill="none" stroke="#8f8672" stroke-width="1.6" opacity="0.95" marker-end="url(#arw-8f8672)"/>
<path d="M836,112 L883,112" fill="none" stroke="#f4efe4" stroke-width="4.6" opacity="1"/>
<path d="M836,112 L883,112" fill="none" stroke="#8f8672" stroke-width="1.6" opacity="0.95" marker-end="url(#arw-8f8672)"/>
<path d="M836,148 L883,148" fill="none" stroke="#f4efe4" stroke-width="4.6" opacity="1"/>
<path d="M836,148 L883,148" fill="none" stroke="#8f8672" stroke-width="1.6" opacity="0.95" marker-end="url(#arw-8f8672)"/>
<path d="M836,184 L883,184" fill="none" stroke="#f4efe4" stroke-width="4.6" opacity="1"/>
<path d="M836,184 L883,184" fill="none" stroke="#8f8672" stroke-width="1.6" opacity="0.95" marker-end="url(#arw-8f8672)"/>
<path d="M836,76 L883,76" fill="none" stroke="#f4efe4" stroke-width="4.6" opacity="1"/>
<path d="M836,76 L883,76" fill="none" stroke="#8f8672" stroke-width="1.6" opacity="0.95" marker-end="url(#arw-8f8672)"/>
<path d="M1008,112 L1055,112" fill="none" stroke="#f4efe4" stroke-width="4.6" opacity="1"/>
<path d="M1008,112 L1055,112" fill="none" stroke="#8f8672" stroke-width="1.6" opacity="0.95" marker-end="url(#arw-8f8672)"/>
<path d="M1008,148 L1055,148" fill="none" stroke="#f4efe4" stroke-width="4.6" opacity="1"/>
<path d="M1008,148 L1055,148" fill="none" stroke="#8f8672" stroke-width="1.6" opacity="0.95" marker-end="url(#arw-8f8672)"/>
<path d="M1008,184 L1055,184" fill="none" stroke="#f4efe4" stroke-width="4.6" opacity="1"/>
<path d="M1008,184 L1055,184" fill="none" stroke="#8f8672" stroke-width="1.6" opacity="0.95" marker-end="url(#arw-8f8672)"/>
<path d="M1008,76 L1055,76" fill="none" stroke="#f4efe4" stroke-width="4.6" opacity="1"/>
<path d="M1008,76 L1055,76" fill="none" stroke="#8f8672" stroke-width="1.6" opacity="0.95" marker-end="url(#arw-8f8672)"/>
<rect x="30" y="100" width="118" height="24" rx="4" fill="#ffffff" stroke="#6a6a72" stroke-width="1.4"/>
<rect x="30" y="100" width="5" height="24" fill="#6a6a72"/>
<text x="39" y="115" font-size="8.2" fill="#2b2620">Forestry</text>
<rect x="202" y="100" width="118" height="24" rx="4" fill="#ffffff" stroke="#6a6a72" stroke-width="1.4"/>
<rect x="202" y="100" width="5" height="24" fill="#6a6a72"/>
<text x="211" y="115" font-size="8.2" fill="#2b2620">Carpentry</text>
<rect x="202" y="136" width="118" height="24" rx="4" fill="#ffffff" stroke="#2E5A8C" stroke-width="1.4"/>
<rect x="202" y="136" width="5" height="24" fill="#2E5A8C"/>
<text x="211" y="151" font-size="8.2" fill="#2b2620">Kiln</text>
<rect x="374" y="136" width="118" height="24" rx="4" fill="#ffffff" stroke="#2E5A8C" stroke-width="1.4"/>
<rect x="374" y="136" width="5" height="24" fill="#2E5A8C"/>
<text x="383" y="151" font-size="8.2" fill="#2b2620">Charcoal Burner</text>
<rect x="374" y="172" width="118" height="24" rx="4" fill="#ffffff" stroke="#2E5A8C" stroke-width="1.4"/>
<rect x="374" y="172" width="5" height="24" fill="#2E5A8C"/>
<text x="383" y="187" font-size="8.2" fill="#2b2620">Joinery</text>
<rect x="546" y="136" width="118" height="24" rx="4" fill="#ffffff" stroke="#6a6a72" stroke-width="1.4"/>
<rect x="546" y="136" width="5" height="24" fill="#6a6a72"/>
<text x="555" y="151" font-size="8.2" fill="#2b2620">Butchery</text>
<rect x="546" y="172" width="118" height="24" rx="4" fill="#ffffff" stroke="#6a6a72" stroke-width="1.4"/>
<rect x="546" y="172" width="5" height="24" fill="#6a6a72"/>
<text x="555" y="187" font-size="8.2" fill="#2b2620">Tannery</text>
<rect x="546" y="64" width="118" height="24" rx="4" fill="#ffffff" stroke="#6a6a72" stroke-width="1.4"/>
<rect x="546" y="64" width="5" height="24" fill="#6a6a72"/>
<text x="555" y="79" font-size="8.2" fill="#2b2620">Fletchery</text>
<rect x="718" y="100" width="118" height="24" rx="4" fill="#ffffff" stroke="#9E2B25" stroke-width="1.4"/>
<rect x="718" y="100" width="5" height="24" fill="#9E2B25"/>
<text x="727" y="115" font-size="8.2" fill="#2b2620">Siege Works</text>
<rect x="718" y="136" width="118" height="24" rx="4" fill="#ffffff" stroke="#6a6a72" stroke-width="1.4"/>
<rect x="718" y="136" width="5" height="24" fill="#6a6a72"/>
<text x="727" y="151" font-size="8.2" fill="#2b2620">Smokehouse</text>
<rect x="718" y="172" width="118" height="24" rx="4" fill="#ffffff" stroke="#2E5A8C" stroke-width="1.4"/>
<rect x="718" y="172" width="5" height="24" fill="#2E5A8C"/>
<text x="727" y="187" font-size="8.2" fill="#2b2620">Armory</text>
<rect x="718" y="64" width="118" height="24" rx="4" fill="#ffffff" stroke="#9E2B25" stroke-width="1.4"/>
<rect x="718" y="64" width="5" height="24" fill="#9E2B25"/>
<text x="727" y="79" font-size="8.2" fill="#2b2620">Tiltyard</text>
<rect x="890" y="100" width="118" height="24" rx="4" fill="#ffffff" stroke="#9E2B25" stroke-width="1.4"/>
<rect x="890" y="100" width="5" height="24" fill="#9E2B25"/>
<text x="899" y="115" font-size="8.2" fill="#2b2620">Siege Camp</text>
<rect x="890" y="136" width="118" height="24" rx="4" fill="#ffffff" stroke="#9E2B25" stroke-width="1.4"/>
<rect x="890" y="136" width="5" height="24" fill="#9E2B25"/>
<text x="899" y="151" font-size="8.2" fill="#2b2620">Levy Hall</text>
<rect x="890" y="172" width="118" height="24" rx="4" fill="#ffffff" stroke="#2E5A8C" stroke-width="1.4"/>
<rect x="890" y="172" width="5" height="24" fill="#2E5A8C"/>
<text x="899" y="187" font-size="8.2" fill="#2b2620">Gilded Foundry</text>
<rect x="890" y="64" width="118" height="24" rx="4" fill="#ffffff" stroke="#9E2B25" stroke-width="1.4"/>
<rect x="890" y="64" width="5" height="24" fill="#9E2B25"/>
<text x="899" y="79" font-size="8.2" fill="#2b2620">Grand Tournament</text>
<rect x="1062" y="100" width="118" height="24" rx="4" fill="#fdf3d0" stroke="#9E2B25" stroke-width="2.2"/>
<rect x="1062" y="100" width="5" height="24" fill="#9E2B25"/>
<text x="1071" y="115" font-size="8.2" fill="#2b2620">Ordinance Yard</text>
<polygon points="1172.0,108.4 1175.6,112.0 1172.0,115.6 1168.4,112.0" fill="#8a6d1a"/>
<rect x="1062" y="136" width="118" height="24" rx="4" fill="#fdf3d0" stroke="#9E2B25" stroke-width="2.2"/>
<rect x="1062" y="136" width="5" height="24" fill="#9E2B25"/>
<text x="1071" y="151" font-size="8.2" fill="#2b2620">Baggage Train</text>
<polygon points="1172.0,144.4 1175.6,148.0 1172.0,151.6 1168.4,148.0" fill="#8a6d1a"/>
<rect x="1062" y="172" width="118" height="24" rx="4" fill="#ffffff" stroke="#6a6a72" stroke-width="1.4"/>
<rect x="1062" y="172" width="5" height="24" fill="#6a6a72"/>
<text x="1071" y="187" font-size="8.2" fill="#2b2620">Jewelry Foundry</text>
<rect x="1062" y="64" width="118" height="24" rx="4" fill="#fdf3d0" stroke="#9E2B25" stroke-width="2.2"/>
<rect x="1062" y="64" width="5" height="24" fill="#9E2B25"/>
<text x="1071" y="79" font-size="8.2" fill="#2b2620">Royal Pavilion</text>
<polygon points="1172.0,72.4 1175.6,76.0 1172.0,79.6 1168.4,76.0" fill="#8a6d1a"/>
<path d="M148,318 L172,318" fill="none" stroke="#f4efe4" stroke-width="4.6" opacity="1"/>
<path d="M148,318 L172,318" fill="none" stroke="#8f8672" stroke-width="1.6" opacity="0.95"/>
<path d="M172,246 L172,390" fill="none" stroke="#f4efe4" stroke-width="4.6" opacity="1"/>
<path d="M172,246 L172,390" fill="none" stroke="#8f8672" stroke-width="1.6" opacity="0.95"/>
<path d="M172,318 L196,318" fill="none" stroke="#f4efe4" stroke-width="4.6" opacity="1"/>
<path d="M172,318 L196,318" fill="none" stroke="#8f8672" stroke-width="1.6" opacity="0.95" marker-end="url(#arw-8f8672)"/>
<path d="M172,354 L712,354" fill="none" stroke="#f4efe4" stroke-width="4.6" opacity="1"/>
<path d="M172,354 L712,354" fill="none" stroke="#8f8672" stroke-width="1.6" opacity="0.95" marker-end="url(#arw-8f8672)"/>
<path d="M172,282 L540,282" fill="none" stroke="#f4efe4" stroke-width="4.6" opacity="1"/>
<path d="M172,282 L540,282" fill="none" stroke="#8f8672" stroke-width="1.6" opacity="0.95" marker-end="url(#arw-8f8672)"/>
<path d="M172,390 L540,390" fill="none" stroke="#f4efe4" stroke-width="4.6" opacity="1"/>
<path d="M172,390 L540,390" fill="none" stroke="#8f8672" stroke-width="1.6" opacity="0.95" marker-end="url(#arw-8f8672)"/>
<path d="M172,246 L540,246" fill="none" stroke="#f4efe4" stroke-width="4.6" opacity="1"/>
<path d="M172,246 L540,246" fill="none" stroke="#8f8672" stroke-width="1.6" opacity="0.95" marker-end="url(#arw-8f8672)"/>
<path d="M320,318 L344,318" fill="none" stroke="#f4efe4" stroke-width="4.6" opacity="1"/>
<path d="M320,318 L344,318" fill="none" stroke="#8f8672" stroke-width="1.6" opacity="0.95"/>
<path d="M344,318 L344,354" fill="none" stroke="#f4efe4" stroke-width="4.6" opacity="1"/>
<path d="M344,318 L344,354" fill="none" stroke="#8f8672" stroke-width="1.6" opacity="0.95"/>
<path d="M344,318 L368,318" fill="none" stroke="#f4efe4" stroke-width="4.6" opacity="1"/>
<path d="M344,318 L368,318" fill="none" stroke="#8f8672" stroke-width="1.6" opacity="0.95" marker-end="url(#arw-8f8672)"/>
<path d="M344,354 L712,354" fill="none" stroke="#f4efe4" stroke-width="4.6" opacity="1"/>
<path d="M344,354 L712,354" fill="none" stroke="#8f8672" stroke-width="1.6" opacity="0.95" marker-end="url(#arw-8f8672)"/>
<path d="M492,318 L539,318" fill="none" stroke="#f4efe4" stroke-width="4.6" opacity="1"/>
<path d="M492,318 L539,318" fill="none" stroke="#8f8672" stroke-width="1.6" opacity="0.95" marker-end="url(#arw-8f8672)"/>
<path d="M664,318 L711,318" fill="none" stroke="#f4efe4" stroke-width="4.6" opacity="1"/>
<path d="M664,318 L711,318" fill="none" stroke="#8f8672" stroke-width="1.6" opacity="0.95" marker-end="url(#arw-8f8672)"/>
<path d="M664,390 L711,390" fill="none" stroke="#f4efe4" stroke-width="4.6" opacity="1"/>
<path d="M664,390 L711,390" fill="none" stroke="#8f8672" stroke-width="1.6" opacity="0.95" marker-end="url(#arw-8f8672)"/>
<path d="M664,246 L711,246" fill="none" stroke="#f4efe4" stroke-width="4.6" opacity="1"/>
<path d="M664,246 L711,246" fill="none" stroke="#8f8672" stroke-width="1.6" opacity="0.95" marker-end="url(#arw-8f8672)"/>
<path d="M664,282 L711,282" fill="none" stroke="#f4efe4" stroke-width="4.6" opacity="1"/>
<path d="M664,282 L711,282" fill="none" stroke="#8f8672" stroke-width="1.6" opacity="0.95" marker-end="url(#arw-8f8672)"/>
<path d="M836,318 L860,318" fill="none" stroke="#f4efe4" stroke-width="4.6" opacity="1"/>
<path d="M836,318 L860,318" fill="none" stroke="#8f8672" stroke-width="1.6" opacity="0.95"/>
<path d="M860,318 L860,354" fill="none" stroke="#f4efe4" stroke-width="4.6" opacity="1"/>
<path d="M860,318 L860,354" fill="none" stroke="#8f8672" stroke-width="1.6" opacity="0.95"/>
<path d="M860,354 L884,354" fill="none" stroke="#f4efe4" stroke-width="4.6" opacity="1"/>
<path d="M860,354 L884,354" fill="none" stroke="#8f8672" stroke-width="1.6" opacity="0.95" marker-end="url(#arw-8f8672)"/>
<path d="M860,318 L1056,318" fill="none" stroke="#f4efe4" stroke-width="4.6" opacity="1"/>
<path d="M860,318 L1056,318" fill="none" stroke="#8f8672" stroke-width="1.6" opacity="0.95" marker-end="url(#arw-8f8672)"/>
<path d="M836,354 L883,354" fill="none" stroke="#f4efe4" stroke-width="4.6" opacity="1"/>
<path d="M836,354 L883,354" fill="none" stroke="#8f8672" stroke-width="1.6" opacity="0.95" marker-end="url(#arw-8f8672)"/>
<path d="M836,390 L883,390" fill="none" stroke="#f4efe4" stroke-width="4.6" opacity="1"/>
<path d="M836,390 L883,390" fill="none" stroke="#8f8672" stroke-width="1.6" opacity="0.95" marker-end="url(#arw-8f8672)"/>
<path d="M836,246 L883,246" fill="none" stroke="#f4efe4" stroke-width="4.6" opacity="1"/>
<path d="M836,246 L883,246" fill="none" stroke="#8f8672" stroke-width="1.6" opacity="0.95" marker-end="url(#arw-8f8672)"/>
<path d="M836,282 L883,282" fill="none" stroke="#f4efe4" stroke-width="4.6" opacity="1"/>
<path d="M836,282 L883,282" fill="none" stroke="#8f8672" stroke-width="1.6" opacity="0.95" marker-end="url(#arw-8f8672)"/>
<path d="M1008,354 L1023,354 Q1032,354 1032,345 L1032,327 Q1032,318 1041,318 L1055,318" fill="none" stroke="#f4efe4" stroke-width="4.6" opacity="1"/>
<path d="M1008,354 L1023,354 Q1032,354 1032,345 L1032,327 Q1032,318 1041,318 L1055,318" fill="none" stroke="#8f8672" stroke-width="1.6" opacity="0.95" marker-end="url(#arw-8f8672)"/>
<path d="M1008,390 L1055,390" fill="none" stroke="#f4efe4" stroke-width="4.6" opacity="1"/>
<path d="M1008,390 L1055,390" fill="none" stroke="#8f8672" stroke-width="1.6" opacity="0.95" marker-end="url(#arw-8f8672)"/>
<path d="M1008,246 L1055,246" fill="none" stroke="#f4efe4" stroke-width="4.6" opacity="1"/>
<path d="M1008,246 L1055,246" fill="none" stroke="#8f8672" stroke-width="1.6" opacity="0.95" marker-end="url(#arw-8f8672)"/>
<path d="M1008,282 L1055,282" fill="none" stroke="#f4efe4" stroke-width="4.6" opacity="1"/>
<path d="M1008,282 L1055,282" fill="none" stroke="#8f8672" stroke-width="1.6" opacity="0.95" marker-end="url(#arw-8f8672)"/>
<rect x="30" y="306" width="118" height="24" rx="4" fill="#ffffff" stroke="#6a6a72" stroke-width="1.4"/>
<rect x="30" y="306" width="5" height="24" fill="#6a6a72"/>
<text x="39" y="321" font-size="8.2" fill="#2b2620">Courtyard</text>
<rect x="202" y="306" width="118" height="24" rx="4" fill="#ffffff" stroke="#2E5A8C" stroke-width="1.4"/>
<rect x="202" y="306" width="5" height="24" fill="#2E5A8C"/>
<text x="211" y="321" font-size="8.2" fill="#2b2620">Market Square</text>
<rect x="374" y="306" width="118" height="24" rx="4" fill="#ffffff" stroke="#6a6a72" stroke-width="1.4"/>
<rect x="374" y="306" width="5" height="24" fill="#6a6a72"/>
<text x="383" y="321" font-size="8.2" fill="#2b2620">Weavery</text>
<rect x="546" y="306" width="118" height="24" rx="4" fill="#ffffff" stroke="#2E5A8C" stroke-width="1.4"/>
<rect x="546" y="306" width="5" height="24" fill="#2E5A8C"/>
<text x="555" y="321" font-size="8.2" fill="#2b2620">Artisan Workshop</text>
<rect x="546" y="378" width="118" height="24" rx="4" fill="#ffffff" stroke="#C6A024" stroke-width="1.4"/>
<rect x="546" y="378" width="5" height="24" fill="#C6A024"/>
<text x="555" y="393" font-size="8.2" fill="#2b2620">Episcopal Court</text>
<rect x="546" y="234" width="118" height="24" rx="4" fill="#ffffff" stroke="#9E2B25" stroke-width="1.4"/>
<rect x="546" y="234" width="5" height="24" fill="#9E2B25"/>
<text x="555" y="249" font-size="8.2" fill="#2b2620">Conditioning Field</text>
<rect x="546" y="270" width="118" height="24" rx="4" fill="#ffffff" stroke="#6a6a72" stroke-width="1.4"/>
<rect x="546" y="270" width="5" height="24" fill="#6a6a72"/>
<text x="555" y="285" font-size="8.2" fill="#2b2620">Jester's Court</text>
<rect x="718" y="306" width="118" height="24" rx="4" fill="#ffffff" stroke="#2E5A8C" stroke-width="1.4"/>
<rect x="718" y="306" width="5" height="24" fill="#2E5A8C"/>
<text x="727" y="321" font-size="8.2" fill="#2b2620">Court Artists</text>
<rect x="718" y="342" width="118" height="24" rx="4" fill="#ffffff" stroke="#2E5A8C" stroke-width="1.4"/>
<rect x="718" y="342" width="5" height="24" fill="#2E5A8C"/>
<text x="727" y="357" font-size="8.2" fill="#2b2620">Merchant Quarter</text>
<rect x="718" y="378" width="118" height="24" rx="4" fill="#ffffff" stroke="#C6A024" stroke-width="1.4"/>
<rect x="718" y="378" width="5" height="24" fill="#C6A024"/>
<text x="727" y="393" font-size="8.2" fill="#2b2620">Interrogation Chambers</text>
<rect x="718" y="234" width="118" height="24" rx="4" fill="#ffffff" stroke="#9E2B25" stroke-width="1.4"/>
<rect x="718" y="234" width="5" height="24" fill="#9E2B25"/>
<text x="727" y="249" font-size="8.2" fill="#2b2620">Castle Yard</text>
<rect x="718" y="270" width="118" height="24" rx="4" fill="#ffffff" stroke="#6a6a72" stroke-width="1.4"/>
<rect x="718" y="270" width="5" height="24" fill="#6a6a72"/>
<text x="727" y="285" font-size="8.2" fill="#2b2620">Bell Tower</text>
<rect x="890" y="342" width="118" height="24" rx="4" fill="#ffffff" stroke="#2E5A8C" stroke-width="1.4"/>
<rect x="890" y="342" width="5" height="24" fill="#2E5A8C"/>
<text x="899" y="357" font-size="8.2" fill="#2b2620">Money Lending</text>
<rect x="890" y="378" width="118" height="24" rx="4" fill="#ffffff" stroke="#C6A024" stroke-width="1.4"/>
<rect x="890" y="378" width="5" height="24" fill="#C6A024"/>
<text x="899" y="393" font-size="8.2" fill="#2b2620">Execution Dock</text>
<rect x="890" y="234" width="118" height="24" rx="4" fill="#ffffff" stroke="#9E2B25" stroke-width="1.4"/>
<rect x="890" y="234" width="5" height="24" fill="#9E2B25"/>
<text x="899" y="249" font-size="8.2" fill="#2b2620">Grand Tournament</text>
<rect x="890" y="270" width="118" height="24" rx="4" fill="#ffffff" stroke="#6a6a72" stroke-width="1.4"/>
<rect x="890" y="270" width="5" height="24" fill="#6a6a72"/>
<text x="899" y="285" font-size="8.2" fill="#2b2620">Embassy</text>
<rect x="1062" y="306" width="118" height="24" rx="4" fill="#fdf3d0" stroke="#2E5A8C" stroke-width="2.2"/>
<rect x="1062" y="306" width="5" height="24" fill="#2E5A8C"/>
<text x="1071" y="321" font-size="8.2" fill="#2b2620">Aristocratic Court</text>
<polygon points="1172.0,314.4 1175.6,318.0 1172.0,321.6 1168.4,318.0" fill="#8a6d1a"/>
<rect x="1062" y="378" width="118" height="24" rx="4" fill="#fdf3d0" stroke="#C6A024" stroke-width="2.2"/>
<rect x="1062" y="378" width="5" height="24" fill="#C6A024"/>
<text x="1071" y="393" font-size="8.2" fill="#2b2620">Inquisitorial Palace</text>
<polygon points="1172.0,386.4 1175.6,390.0 1172.0,393.6 1168.4,390.0" fill="#8a6d1a"/>
<rect x="1062" y="234" width="118" height="24" rx="4" fill="#fdf3d0" stroke="#9E2B25" stroke-width="2.2"/>
<rect x="1062" y="234" width="5" height="24" fill="#9E2B25"/>
<text x="1071" y="249" font-size="8.2" fill="#2b2620">Royal Pavilion</text>
<polygon points="1172.0,242.4 1175.6,246.0 1172.0,249.6 1168.4,246.0" fill="#8a6d1a"/>
<rect x="1062" y="270" width="118" height="24" rx="4" fill="#fdf3d0" stroke="#6a6a72" stroke-width="2.2"/>
<rect x="1062" y="270" width="5" height="24" fill="#6a6a72"/>
<text x="1071" y="285" font-size="8.2" fill="#2b2620">Senate Hall</text>
<polygon points="1172.0,278.4 1175.6,282.0 1172.0,285.6 1168.4,282.0" fill="#8a6d1a"/>
<path d="M148,452 L195,452" fill="none" stroke="#f4efe4" stroke-width="4.6" opacity="1"/>
<path d="M148,452 L195,452" fill="none" stroke="#8f8672" stroke-width="1.6" opacity="0.95" marker-end="url(#arw-8f8672)"/>
<path d="M320,452 L344,452" fill="none" stroke="#f4efe4" stroke-width="4.6" opacity="1"/>
<path d="M320,452 L344,452" fill="none" stroke="#8f8672" stroke-width="1.6" opacity="0.95"/>
<path d="M344,452 L344,488" fill="none" stroke="#f4efe4" stroke-width="4.6" opacity="1"/>
<path d="M344,452 L344,488" fill="none" stroke="#8f8672" stroke-width="1.6" opacity="0.95"/>
<path d="M344,452 L712,452" fill="none" stroke="#f4efe4" stroke-width="4.6" opacity="1"/>
<path d="M344,452 L712,452" fill="none" stroke="#8f8672" stroke-width="1.6" opacity="0.95" marker-end="url(#arw-8f8672)"/>
<path d="M344,488 L368,488" fill="none" stroke="#f4efe4" stroke-width="4.6" opacity="1"/>
<path d="M344,488 L368,488" fill="none" stroke="#8f8672" stroke-width="1.6" opacity="0.95" marker-end="url(#arw-8f8672)"/>
<path d="M492,488 L516,488" fill="none" stroke="#f4efe4" stroke-width="4.6" opacity="1"/>
<path d="M492,488 L516,488" fill="none" stroke="#8f8672" stroke-width="1.6" opacity="0.95"/>
<path d="M516,488 L516,524" fill="none" stroke="#f4efe4" stroke-width="4.6" opacity="1"/>
<path d="M516,488 L516,524" fill="none" stroke="#8f8672" stroke-width="1.6" opacity="0.95"/>
<path d="M516,524 L540,524" fill="none" stroke="#f4efe4" stroke-width="4.6" opacity="1"/>
<path d="M516,524 L540,524" fill="none" stroke="#8f8672" stroke-width="1.6" opacity="0.95" marker-end="url(#arw-8f8672)"/>
<path d="M516,488 L712,488" fill="none" stroke="#f4efe4" stroke-width="4.6" opacity="1"/>
<path d="M516,488 L712,488" fill="none" stroke="#8f8672" stroke-width="1.6" opacity="0.95" marker-end="url(#arw-8f8672)"/>
<path d="M664,524 L679,524 Q688,524 688,515 L688,497 Q688,488 697,488 L711,488" fill="none" stroke="#f4efe4" stroke-width="4.6" opacity="1"/>
<path d="M664,524 L679,524 Q688,524 688,515 L688,497 Q688,488 697,488 L711,488" fill="none" stroke="#8f8672" stroke-width="1.6" opacity="0.95" marker-end="url(#arw-8f8672)"/>
<path d="M836,452 L883,452" fill="none" stroke="#f4efe4" stroke-width="4.6" opacity="1"/>
<path d="M836,452 L883,452" fill="none" stroke="#8f8672" stroke-width="1.6" opacity="0.95" marker-end="url(#arw-8f8672)"/>
<path d="M836,488 L883,488" fill="none" stroke="#f4efe4" stroke-width="4.6" opacity="1"/>
<path d="M836,488 L883,488" fill="none" stroke="#8f8672" stroke-width="1.6" opacity="0.95" marker-end="url(#arw-8f8672)"/>
<path d="M1008,452 L1055,452" fill="none" stroke="#f4efe4" stroke-width="4.6" opacity="1"/>
<path d="M1008,452 L1055,452" fill="none" stroke="#8f8672" stroke-width="1.6" opacity="0.95" marker-end="url(#arw-8f8672)"/>
<path d="M1008,488 L1055,488" fill="none" stroke="#f4efe4" stroke-width="4.6" opacity="1"/>
<path d="M1008,488 L1055,488" fill="none" stroke="#8f8672" stroke-width="1.6" opacity="0.95" marker-end="url(#arw-8f8672)"/>
<path d="M1180,452 L1227,452" fill="none" stroke="#f4efe4" stroke-width="4.6" opacity="1"/>
<path d="M1180,452 L1227,452" fill="none" stroke="#8f8672" stroke-width="1.6" opacity="0.95" marker-end="url(#arw-8f8672)"/>
<path d="M1180,488 L1227,488" fill="none" stroke="#f4efe4" stroke-width="4.6" opacity="1"/>
<path d="M1180,488 L1227,488" fill="none" stroke="#8f8672" stroke-width="1.6" opacity="0.95" marker-end="url(#arw-8f8672)"/>
<rect x="30" y="440" width="118" height="24" rx="4" fill="#ffffff" stroke="#6a6a72" stroke-width="1.4"/>
<rect x="30" y="440" width="5" height="24" fill="#6a6a72"/>
<text x="39" y="455" font-size="8.2" fill="#2b2620">Arable Land</text>
<rect x="202" y="440" width="118" height="24" rx="4" fill="#ffffff" stroke="#6a6a72" stroke-width="1.4"/>
<rect x="202" y="440" width="5" height="24" fill="#6a6a72"/>
<text x="211" y="455" font-size="8.2" fill="#2b2620">Animal Husbandry</text>
<rect x="374" y="476" width="118" height="24" rx="4" fill="#ffffff" stroke="#6a6a72" stroke-width="1.4"/>
<rect x="374" y="476" width="5" height="24" fill="#6a6a72"/>
<text x="383" y="491" font-size="8.2" fill="#2b2620">Stable</text>
<rect x="546" y="512" width="118" height="24" rx="4" fill="#ffffff" stroke="#6a6a72" stroke-width="1.4"/>
<rect x="546" y="512" width="5" height="24" fill="#6a6a72"/>
<text x="555" y="527" font-size="8.2" fill="#2b2620">Saddlery</text>
<rect x="718" y="440" width="118" height="24" rx="4" fill="#ffffff" stroke="#6a6a72" stroke-width="1.4"/>
<rect x="718" y="440" width="5" height="24" fill="#6a6a72"/>
<text x="727" y="455" font-size="8.2" fill="#2b2620">Tannery</text>
<rect x="718" y="476" width="118" height="24" rx="4" fill="#ffffff" stroke="#6a6a72" stroke-width="1.4"/>
<rect x="718" y="476" width="5" height="24" fill="#6a6a72"/>
<text x="727" y="491" font-size="8.2" fill="#2b2620">Caravanery</text>
<rect x="890" y="440" width="118" height="24" rx="4" fill="#ffffff" stroke="#2E5A8C" stroke-width="1.4"/>
<rect x="890" y="440" width="5" height="24" fill="#2E5A8C"/>
<text x="899" y="455" font-size="8.2" fill="#2b2620">Armory</text>
<rect x="890" y="476" width="118" height="24" rx="4" fill="#ffffff" stroke="#1c1c20" stroke-width="1.4"/>
<rect x="890" y="476" width="5" height="24" fill="#1c1c20"/>
<text x="899" y="491" font-size="8.2" fill="#2b2620">Toll House</text>
<rect x="1062" y="440" width="118" height="24" rx="4" fill="#ffffff" stroke="#2E5A8C" stroke-width="1.4"/>
<rect x="1062" y="440" width="5" height="24" fill="#2E5A8C"/>
<text x="1071" y="455" font-size="8.2" fill="#2b2620">Gilded Foundry</text>
<rect x="1062" y="476" width="118" height="24" rx="4" fill="#ffffff" stroke="#1c1c20" stroke-width="1.4"/>
<rect x="1062" y="476" width="5" height="24" fill="#1c1c20"/>
<text x="1071" y="491" font-size="8.2" fill="#2b2620">Beacon Towers</text>
<rect x="1234" y="440" width="118" height="24" rx="4" fill="#ffffff" stroke="#6a6a72" stroke-width="1.4"/>
<rect x="1234" y="440" width="5" height="24" fill="#6a6a72"/>
<text x="1243" y="455" font-size="8.2" fill="#2b2620">Jewelry Foundry</text>
<rect x="1234" y="476" width="118" height="24" rx="4" fill="#fdf3d0" stroke="#1c1c20" stroke-width="2.2"/>
<rect x="1234" y="476" width="5" height="24" fill="#1c1c20"/>
<text x="1243" y="491" font-size="8.2" fill="#2b2620">Outrider Intercept Post</text>
<polygon points="1344.0,484.4 1347.6,488.0 1344.0,491.6 1340.4,488.0" fill="#8a6d1a"/>
</svg>