<svg xmlns="http://www.w3.org/2000/svg" width="1210" height="632" viewBox="0 0 1210 632" font-family="Georgia, serif">
<rect width="1210" height="632" fill="#f4efe4"/>
<defs><marker id="arw-2E5A8C" markerWidth="7" markerHeight="7" refX="6" refY="3" orient="auto"><path d="M0,0 L6,3 L0,6 Z" fill="#2E5A8C"/></marker><marker id="arw-9E2B25" markerWidth="7" markerHeight="7" refX="6" refY="3" orient="auto"><path d="M0,0 L6,3 L0,6 Z" fill="#9E2B25"/></marker><marker id="arw-1c9c8c" markerWidth="7" markerHeight="7" refX="6" refY="3" orient="auto"><path d="M0,0 L6,3 L0,6 Z" fill="#1c9c8c"/></marker><marker id="arw-C6A024" markerWidth="7" markerHeight="7" refX="6" refY="3" orient="auto"><path d="M0,0 L6,3 L0,6 Z" fill="#C6A024"/></marker><marker id="arw-6A3D8F" markerWidth="7" markerHeight="7" refX="6" refY="3" orient="auto"><path d="M0,0 L6,3 L0,6 Z" fill="#6A3D8F"/></marker><marker id="arw-CC6A1A" markerWidth="7" markerHeight="7" refX="6" refY="3" orient="auto"><path d="M0,0 L6,3 L0,6 Z" fill="#CC6A1A"/></marker><marker id="arw-3a7d3a" markerWidth="7" markerHeight="7" refX="6" refY="3" orient="auto"><path d="M0,0 L6,3 L0,6 Z" fill="#3a7d3a"/></marker><marker id="arw-b5347a" markerWidth="7" markerHeight="7" refX="6" refY="3" orient="auto"><path d="M0,0 L6,3 L0,6 Z" fill="#b5347a"/></marker><marker id="arw-2b6f9e" markerWidth="7" markerHeight="7" refX="6" refY="3" orient="auto"><path d="M0,0 L6,3 L0,6 Z" fill="#2b6f9e"/></marker><marker id="arw-8a6d1a" markerWidth="7" markerHeight="7" refX="6" refY="3" orient="auto"><path d="M0,0 L6,3 L0,6 Z" fill="#8a6d1a"/></marker><marker id="arw-5f5647" markerWidth="7" markerHeight="7" refX="6" refY="3" orient="auto"><path d="M0,0 L6,3 L0,6 Z" fill="#5f5647"/></marker><marker id="arw-7a2ea0" markerWidth="7" markerHeight="7" refX="6" refY="3" orient="auto"><path d="M0,0 L6,3 L0,6 Z" fill="#7a2ea0"/></marker><marker id="arw-0f8a7e" markerWidth="7" markerHeight="7" refX="6" refY="3" orient="auto"><path d="M0,0 L6,3 L0,6 Z" fill="#0f8a7e"/></marker><marker id="arw-a83232" markerWidth="7" markerHeight="7" refX="6" refY="3" orient="auto"><path d="M0,0 L6,3 L0,6 Z" fill="#a83232"/></marker><marker id="arw-8f8672" markerWidth="7" markerHeight="7" refX="6" refY="3" orient="auto"><path d="M0,0 L6,3 L0,6 Z" fill="#8f8672"/></marker></defs>
<text x="30" y="34" font-size="20" font-weight="bold" fill="#2b2620">Holding Paths</text>
<path d="M148,76 L195,76" fill="none" stroke="#f4efe4" stroke-width="4.6" opacity="1"/>
<path d="M148,76 L195,76" fill="none" stroke="#8f8672" stroke-width="1.6" opacity="0.95" marker-end="url(#arw-8f8672)"/>
<path d="M148,148 L195,148" fill="none" stroke="#f4efe4" stroke-width="4.6" opacity="1"/>
<path d="M148,148 L195,148" fill="none" stroke="#8f8672" stroke-width="1.6" opacity="0.95" marker-end="url(#arw-8f8672)"/>
<path d="M320,76 L367,76" fill="none" stroke="#f4efe4" stroke-width="4.6" opacity="1"/>
<path d="M320,76 L367,76" fill="none" stroke="#8f8672" stroke-width="1.6" opacity="0.95" marker-end="url(#arw-8f8672)"/>
<path d="M320,148 L344,148" fill="none" stroke="#f4efe4" stroke-width="4.6" opacity="1"/>
<path d="M320,148 L344,148" fill="none" stroke="#8f8672" stroke-width="1.6" opacity="0.95"/>
<path d="M344,148 L344,184" fill="none" stroke="#f4efe4" stroke-width="4.6" opacity="1"/>
<path d="M344,148 L344,184" fill="none" stroke="#8f8672" stroke-width="1.6" opacity="0.95"/>
<path d="M344,148 L368,148" fill="none" stroke="#f4efe4" stroke-width="4.6" opacity="1"/>
<path d="M344,148 L368,148" fill="none" stroke="#8f8672" stroke-width="1.6" opacity="0.95" marker-end="url(#arw-8f8672)"/>
<path d="M344,184 L884,184" fill="none" stroke="#f4efe4" stroke-width="4.6" opacity="1"/>
<path d="M344,184 L884,184" fill="none" stroke="#8f8672" stroke-width="1.6" opacity="0.95" marker-end="url(#arw-8f8672)"/>
<path d="M492,76 L516,76" fill="none" stroke="#f4efe4" stroke-width="4.6" opacity="1"/>
<path d="M492,76 L516,76" fill="none" stroke="#8f8672" stroke-width="1.6" opacity="0.95"/>
<path d="M516,76 L516,112" fill="none" stroke="#f4efe4" stroke-width="4.6" opacity="1"/>
<path d="M516,76 L516,112" fill="none" stroke="#8f8672" stroke-width="1.6" opacity="0.95"/>
<path d="M516,112 L540,112" fill="none" stroke="#f4efe4" stroke-width="4.6" opacity="1"/>
<path d="M516,112 L540,112" fill="none" stroke="#8f8672" stroke-width="1.6" opacity="0.95" marker-end="url(#arw-8f8672)"/>
<path d="M516,76 L540,76" fill="none" stroke="#f4efe4" stroke-width="4.6" opacity="1"/>
<path d="M516,76 L540,76" fill="none" stroke="#8f8672" stroke-width="1.6" opacity="0.95" marker-end="url(#arw-8f8672)"/>
<path d="M492,112 L516,112" fill="none" stroke="#f4efe4" stroke-width="4.6" opacity="1"/>
<path d="M492,112 L516,112" fill="none" stroke="#8f8672" stroke-width="1.6" opacity="0.95"/>
<path d="M516,112 L516,220" fill="none" stroke="#f4efe4" stroke-width="4.6" opacity="1"/>
<path d="M516,112 L516,220" fill="none" stroke="#8f8672" stroke-width="1.6" opacity="0.95"/>
<path d="M516,148 L712,148" fill="none" stroke="#f4efe4" stroke-width="4.6" opacity="1"/>
<path d="M516,148 L712,148" fill="none" stroke="#8f8672" stroke-width="1.6" opacity="0.95" marker-end="url(#arw-8f8672)"/>
<path d="M516,220 L712,220" fill="none" stroke="#f4efe4" stroke-width="4.6" opacity="1"/>
<path d="M516,220 L712,220" fill="none" stroke="#8f8672" stroke-width="1.6" opacity="0.95" marker-end="url(#arw-8f8672)"/>
<path d="M492,148 L516,148" fill="none" stroke="#f4efe4" stroke-width="4.6" opacity="1"/>
<path d="M492,148 L516,148" fill="none" stroke="#8f8672" stroke-width="1.6" opacity="0.95"/>
<path d="M516,148 L540,148" fill="none" stroke="#f4efe4" stroke-width="4.6" opacity="1"/>
<path d="M516,148 L540,148" fill="none" stroke="#8f8672" stroke-width="1.6" opacity="0.95" marker-end="url(#arw-8f8672)"/>
<path d="M516,148 L712,148" fill="none" stroke="#f4efe4" stroke-width="4.6" opacity="1"/>
<path d="M516,148 L712,148" fill="none" stroke="#8f8672" stroke-width="1.6" opacity="0.95" marker-end="url(#arw-8f8672)"/>
<path d="M664,76 L711,76" fill="none" stroke="#f4efe4" stroke-width="4.6" opacity="1"/>
<path d="M664,76 L711,76" fill="none" stroke="#8f8672" stroke-width="1.6" opacity="0.95" marker-end="url(#arw-8f8672)"/>
<path d="M664,148 L711,148" fill="none" stroke="#f4efe4" stroke-width="4.6" opacity="1"/>
<path d="M664,148 L711,148" fill="none" stroke="#8f8672" stroke-width="1.6" opacity="0.95" marker-end="url(#arw-8f8672)"/>
<path d="M836,76 L883,76" fill="none" stroke="#f4efe4" stroke-width="4.6" opacity="1"/>
<path d="M836,76 L883,76" fill="none" stroke="#8f8672" stroke-width="1.6" opacity="0.95" marker-end="url(#arw-8f8672)"/>
<path d="M836,148 L883,148" fill="none" stroke="#f4efe4" stroke-width="4.6" opacity="1"/>
<path d="M836,148 L883,148" fill="none" stroke="#8f8672" stroke-width="1.6" opacity="0.95" marker-end="url(#arw-8f8672)"/>
<path d="M836,220 L851,220 Q860,220 860,211 L860,193 Q860,184 869,184 L883,184" fill="none" stroke="#f4efe4" stroke-width="4.6" opacity="1"/>
<path d="M836,220 L851,220 Q860,220 860,211 L860,193 Q860,184 869,184 L883,184" fill="none" stroke="#8f8672" stroke-width="1.6" opacity="0.95" marker-end="url(#arw-8f8672)"/>
<path d="M1008,76 L1055,76" fill="none" stroke="#f4efe4" stroke-width="4.6" opacity="1"/>
<path d="M1008,76 L1055,76" fill="none" stroke="#8f8672" stroke-width="1.6" opacity="0.95" marker-end="url(#arw-8f8672)"/>
<path d="M1008,148 L1023,148 Q1032,148 1032,139 L1032,85 Q1032,76 1041,76 L1055,76" fill="none" stroke="#f4efe4" stroke-width="4.6" opacity="1"/>
<path d="M1008,148 L1023,148 Q1032,148 1032,139 L1032,85 Q1032,76 1041,76 L1055,76" fill="none" stroke="#8f8672" stroke-width="1.6" opacity="0.95" marker-end="url(#arw-8f8672)"/>
<rect x="30" y="64" width="118" height="24" rx="4" fill="#ffffff" stroke="#6a6a72" stroke-width="1.4"/>
<rect x="30" y="64" width="5" height="24" fill="#6a6a72"/>
<text x="39" y="79" font-size="8.2" fill="#2b2620">Arable Land</text>
<rect x="30" y="136" width="118" height="24" rx="4" fill="#ffffff" stroke="#6a6a72" stroke-width="1.4"/>
<rect x="30" y="136" width="5" height="24" fill="#6a6a72"/>
<text x="39" y="151" font-size="8.2" fill="#2b2620">Peat Bog</text>
<rect x="202" y="64" width="118" height="24" rx="4" fill="#ffffff" stroke="#6a6a72" stroke-width="1.4"/>
<rect x="202" y="64" width="5" height="24" fill="#6a6a72"/>
<text x="211" y="79" font-size="8.2" fill="#2b2620">Animal Husbandry</text>
<rect x="202" y="136" width="118" height="24" rx="4" fill="#ffffff" stroke="#6a6a72" stroke-width="1.4"/>
<rect x="202" y="136" width="5" height="24" fill="#6a6a72"/>
<text x="211" y="151" font-size="8.2" fill="#2b2620">Alchemy</text>
<rect x="374" y="64" width="118" height="24" rx="4" fill="#ffffff" stroke="#6a6a72" stroke-width="1.4"/>
<rect x="374" y="64" width="5" height="24" fill="#6a6a72"/>
<text x="383" y="79" font-size="8.2" fill="#2b2620">Stable</text>
<rect x="374" y="100" width="118" height="24" rx="4" fill="#ffffff" stroke="#1c1c20" stroke-width="1.4"/>
<rect x="374" y="100" width="5" height="24" fill="#1c1c20"/>
<text x="383" y="115" font-size="8.2" fill="#2b2620">Secret Cellar</text>
<rect x="374" y="136" width="118" height="24" rx="4" fill="#ffffff" stroke="#6a6a72" stroke-width="1.4"/>
<rect x="374" y="136" width="5" height="24" fill="#6a6a72"/>
<text x="383" y="151" font-size="8.2" fill="#2b2620">Academy</text>
<rect x="546" y="64" width="118" height="24" rx="4" fill="#ffffff" stroke="#6a6a72" stroke-width="1.4"/>
<rect x="546" y="64" width="5" height="24" fill="#6a6a72"/>
<text x="555" y="79" font-size="8.2" fill="#2b2620">Caravanery</text>
<rect x="546" y="100" width="118" height="24" rx="4" fill="#ffffff" stroke="#6a6a72" stroke-width="1.4"/>
<rect x="546" y="100" width="5" height="24" fill="#6a6a72"/>
<text x="555" y="115" font-size="8.2" fill="#2b2620">Saddlery</text>
<rect x="546" y="136" width="118" height="24" rx="4" fill="#ffffff" stroke="#6a6a72" stroke-width="1.4"/>
<rect x="546" y="136" width="5" height="24" fill="#6a6a72"/>
<text x="555" y="151" font-size="8.2" fill="#2b2620">University</text>
<rect x="718" y="64" width="118" height="24" rx="4" fill="#ffffff" stroke="#6a6a72" stroke-width="1.4"/>
<rect x="718" y="64" width="5" height="24" fill="#6a6a72"/>
<text x="727" y="79" font-size="8.2" fill="#2b2620">Toll House</text>
<rect x="718" y="136" width="118" height="24" rx="4" fill="#ffffff" stroke="#1c1c20" stroke-width="1.4"/>
<rect x="718" y="136" width="5" height="24" fill="#1c1c20"/>
<text x="727" y="151" font-size="8.2" fill="#2b2620">Forgery Workshop</text>
<rect x="718" y="208" width="118" height="24" rx="4" fill="#ffffff" stroke="#1c1c20" stroke-width="1.4"/>
<rect x="718" y="208" width="5" height="24" fill="#1c1c20"/>
<text x="727" y="223" font-size="8.2" fill="#2b2620">Forgotten Catacombs</text>
<rect x="890" y="64" width="118" height="24" rx="4" fill="#ffffff" stroke="#9E2B25" stroke-width="1.4"/>
<rect x="890" y="64" width="5" height="24" fill="#9E2B25"/>
<text x="899" y="79" font-size="8.2" fill="#2b2620">Beacon Towers</text>
<rect x="890" y="136" width="118" height="24" rx="4" fill="#ffffff" stroke="#1c1c20" stroke-width="1.4"/>
<rect x="890" y="136" width="5" height="24" fill="#1c1c20"/>
<text x="899" y="151" font-size="8.2" fill="#2b2620">Cipher Chamber</text>
<rect x="890" y="172" width="118" height="24" rx="4" fill="#ffffff" stroke="#1c1c20" stroke-width="1.4"/>
<rect x="890" y="172" width="5" height="24" fill="#1c1c20"/>
<text x="899" y="187" font-size="8.2" fill="#2b2620">Toxicarium</text>
<rect x="1062" y="64" width="118" height="24" rx="4" fill="#fdf3d0" stroke="#1c1c20" stroke-width="2.2"/>
<rect x="1062" y="64" width="5" height="24" fill="#1c1c20"/>
<text x="1071" y="79" font-size="8.2" fill="#2b2620">Outrider Intercept Post</text>
<polygon points="1172.0,72.4 1175.6,76.0 1172.0,79.6 1168.4,76.0" fill="#8a6d1a"/>
<path d="M148,318 L195,318" fill="none" stroke="#f4efe4" stroke-width="4.6" opacity="1"/>
<path d="M148,318 L195,318" fill="none" stroke="#8f8672" stroke-width="1.6" opacity="0.95" marker-end="url(#arw-8f8672)"/>
<path d="M320,282 L344,282" fill="none" stroke="#f4efe4" stroke-width="4.6" opacity="1"/>
<path d="M320,282 L344,282" fill="none" stroke="#8f8672" stroke-width="1.6" opacity="0.95"/>
<path d="M344,282 L344,318" fill="none" stroke="#f4efe4" stroke-width="4.6" opacity="1"/>
<path d="M344,282 L344,318" fill="none" stroke="#8f8672" stroke-width="1.6" opacity="0.95"/>
<path d="M344,318 L368,318" fill="none" stroke="#f4efe4" stroke-width="4.6" opacity="1"/>
<path d="M344,318 L368,318" fill="none" stroke="#8f8672" stroke-width="1.6" opacity="0.95" marker-end="url(#arw-8f8672)"/>
<path d="M344,318 L540,318" fill="none" stroke="#f4efe4" stroke-width="4.6" opacity="1"/>
<path d="M344,318 L540,318" fill="none" stroke="#8f8672" stroke-width="1.6" opacity="0.95" marker-end="url(#arw-8f8672)"/>
<path d="M344,282 L712,282" fill="none" stroke="#f4efe4" stroke-width="4.6" opacity="1"/>
<path d="M344,282 L712,282" fill="none" stroke="#8f8672" stroke-width="1.6" opacity="0.95" marker-end="url(#arw-8f8672)"/>
<path d="M320,318 L367,318" fill="none" stroke="#f4efe4" stroke-width="4.6" opacity="1"/>
<path d="M320,318 L367,318" fill="none" stroke="#8f8672" stroke-width="1.6" opacity="0.95" marker-end="url(#arw-8f8672)"/>
<path d="M492,318 L539,318" fill="none" stroke="#f4efe4" stroke-width="4.6" opacity="1"/>
<path d="M492,318 L539,318" fill="none" stroke="#8f8672" stroke-width="1.6" opacity="0.95" marker-end="url(#arw-8f8672)"/>
<path d="M664,318 L679,318 Q688,318 688,309 L688,291 Q688,282 697,282 L711,282" fill="none" stroke="#f4efe4" stroke-width="4.6" opacity="1"/>
<path d="M664,318 L679,318 Q688,318 688,309 L688,291 Q688,282 697,282 L711,282" fill="none" stroke="#8f8672" stroke-width="1.6" opacity="0.95" marker-end="url(#arw-8f8672)"/>
<rect x="30" y="306" width="118" height="24" rx="4" fill="#ffffff" stroke="#6a6a72" stroke-width="1.4"/>
<rect x="30" y="306" width="5" height="24" fill="#6a6a72"/>
<text x="39" y="321" font-size="8.2" fill="#2b2620">Inn</text>
<rect x="202" y="270" width="118" height="24" rx="4" fill="#ffffff" stroke="#1c1c20" stroke-width="1.4"/>
<rect x="202" y="270" width="5" height="24" fill="#1c1c20"/>
<text x="211" y="285" font-size="8.2" fill="#2b2620">Secret Cellar</text>
<rect x="202" y="306" width="118" height="24" rx="4" fill="#ffffff" stroke="#6a6a72" stroke-width="1.4"/>
<rect x="202" y="306" width="5" height="24" fill="#6a6a72"/>
<text x="211" y="321" font-size="8.2" fill="#2b2620">Courier Network</text>
<rect x="374" y="306" width="118" height="24" rx="4" fill="#ffffff" stroke="#1c1c20" stroke-width="1.4"/>
<rect x="374" y="306" width="5" height="24" fill="#1c1c20"/>
<text x="383" y="321" font-size="8.2" fill="#2b2620">Smuggler's Nook</text>
<rect x="546" y="306" width="118" height="24" rx="4" fill="#ffffff" stroke="#1c1c20" stroke-width="1.4"/>
<rect x="546" y="306" width="5" height="24" fill="#1c1c20"/>
<text x="555" y="321" font-size="8.2" fill="#2b2620">Black Market</text>
<rect x="718" y="270" width="118" height="24" rx="4" fill="#fdf3d0" stroke="#1c1c20" stroke-width="2.2"/>
<rect x="718" y="270" width="5" height="24" fill="#1c1c20"/>
<text x="727" y="285" font-size="8.2" fill="#2b2620">Thieves' Guild</text>
<polygon points="828.0,278.4 831.6,282.0 828.0,285.6 824.4,282.0" fill="#8a6d1a"/>
<path d="M148,380 L195,380" fill="none" stroke="#f4efe4" stroke-width="4.6" opacity="1"/>
<path d="M148,380 L195,380" fill="none" stroke="#8f8672" stroke-width="1.6" opacity="0.95" marker-end="url(#arw-8f8672)"/>
<path d="M320,380 L367,380" fill="none" stroke="#f4efe4" stroke-width="4.6" opacity="1"/>
<path d="M320,380 L367,380" fill="none" stroke="#8f8672" stroke-width="1.6" opacity="0.95" marker-end="url(#arw-8f8672)"/>
<path d="M492,380 L516,380" fill="none" stroke="#f4efe4" stroke-width="4.6" opacity="1"/>
<path d="M492,380 L516,380" fill="none" stroke="#8f8672" stroke-width="1.6" opacity="0.95"/>
<path d="M516,380 L516,416" fill="none" stroke="#f4efe4" stroke-width="4.6" opacity="1"/>
<path d="M516,380 L516,416" fill="none" stroke="#8f8672" stroke-width="1.6" opacity="0.95"/>
<path d="M516,416 L540,416" fill="none" stroke="#f4efe4" stroke-width="4.6" opacity="1"/>
<path d="M516,416 L540,416" fill="none" stroke="#8f8672" stroke-width="1.6" opacity="0.95" marker-end="url(#arw-8f8672)"/>
<path d="M516,380 L712,380" fill="none" stroke="#f4efe4" stroke-width="4.6" opacity="1"/>
<path d="M516,380 L712,380" fill="none" stroke="#8f8672" stroke-width="1.6" opacity="0.95" marker-end="url(#arw-8f8672)"/>
<path d="M664,416 L679,416 Q688,416 688,407 L688,389 Q688,380 697,380 L711,380" fill="none" stroke="#f4efe4" stroke-width="4.6" opacity="1"/>
<path d="M664,416 L679,416 Q688,416 688,407 L688,389 Q688,380 697,380 L711,380" fill="none" stroke="#8f8672" stroke-width="1.6" opacity="0.95" marker-end="url(#arw-8f8672)"/>
<path d="M664,452 L679,452 Q688,452 688,443 L688,389 Q688,380 697,380 L711,380" fill="none" stroke="#f4efe4" stroke-width="4.6" opacity="1"/>
<path d="M664,452 L679,452 Q688,452 688,443 L688,389 Q688,380 697,380 L711,380" fill="none" stroke="#8f8672" stroke-width="1.6" opacity="0.95" marker-end="url(#arw-8f8672)"/>
<path d="M836,380 L883,380" fill="none" stroke="#f4efe4" stroke-width="4.6" opacity="1"/>
<path d="M836,380 L883,380" fill="none" stroke="#8f8672" stroke-width="1.6" opacity="0.95" marker-end="url(#arw-8f8672)"/>
<path d="M1008,380 L1055,380" fill="none" stroke="#f4efe4" stroke-width="4.6" opacity="1"/>
<path d="M1008,380 L1055,380" fill="none" stroke="#8f8672" stroke-width="1.6" opacity="0.95" marker-end="url(#arw-8f8672)"/>
<rect x="30" y="368" width="118" height="24" rx="4" fill="#ffffff" stroke="#6a6a72" stroke-width="1.4"/>
<rect x="30" y="368" width="5" height="24" fill="#6a6a72"/>
<text x="39" y="383" font-size="8.2" fill="#2b2620">Peat Bog</text>
<rect x="202" y="368" width="118" height="24" rx="4" fill="#ffffff" stroke="#6a6a72" stroke-width="1.4"/>
<rect x="202" y="368" width="5" height="24" fill="#6a6a72"/>
<text x="211" y="383" font-size="8.2" fill="#2b2620">Alchemy</text>
<rect x="374" y="368" width="118" height="24" rx="4" fill="#ffffff" stroke="#6a6a72" stroke-width="1.4"/>
<rect x="374" y="368" width="5" height="24" fill="#6a6a72"/>
<text x="383" y="383" font-size="8.2" fill="#2b2620">Academy</text>
<rect x="546" y="404" width="118" height="24" rx="4" fill="#ffffff" stroke="#6a6a72" stroke-width="1.4"/>
<rect x="546" y="404" width="5" height="24" fill="#6a6a72"/>
<text x="555" y="419" font-size="8.2" fill="#2b2620">University</text>
<rect x="546" y="440" width="118" height="24" rx="4" fill="#ffffff" stroke="#1c1c20" stroke-width="1.4"/>
<rect x="546" y="440" width="5" height="24" fill="#1c1c20"/>
<text x="555" y="455" font-size="8.2" fill="#2b2620">Secret Cellar</text>
<rect x="718" y="368" width="118" height="24" rx="4" fill="#ffffff" stroke="#1c1c20" stroke-width="1.4"/>
<rect x="718" y="368" width="5" height="24" fill="#1c1c20"/>
<text x="727" y="383" font-size="8.2" fill="#2b2620">Forgery Workshop</text>
<rect x="890" y="368" width="118" height="24" rx="4" fill="#ffffff" stroke="#1c1c20" stroke-width="1.4"/>
<rect x="890" y="368" width="5" height="24" fill="#1c1c20"/>
<text x="899" y="383" font-size="8.2" fill="#2b2620">Cipher Chamber</text>
<rect x="1062" y="368" width="118" height="24" rx="4" fill="#fdf3d0" stroke="#1c1c20" stroke-width="2.2"/>
<rect x="1062" y="368" width="5" height="24" fill="#1c1c20"/>
<text x="1071" y="383" font-size="8.2" fill="#2b2620">Whispering Undercroft</text>
<polygon points="1172.0,376.4 1175.6,380.0 1172.0,383.6 1168.4,380.0" fill="#8a6d1a"/>
<path d="M148,514 L195,514" fill="none" stroke="#f4efe4" stroke-width="4.6" opacity="1"/>
<path d="M148,514 L195,514" fill="none" stroke="#8f8672" stroke-width="1.6" opacity="0.95" marker-end="url(#arw-8f8672)"/>
<path d="M320,514 L367,514" fill="none" stroke="#f4efe4" stroke-width="4.6" opacity="1"/>
<path d="M320,514 L367,514" fill="none" stroke="#8f8672" stroke-width="1.6" opacity="0.95" marker-end="url(#arw-8f8672)"/>
<path d="M492,514 L539,514" fill="none" stroke="#f4efe4" stroke-width="4.6" opacity="1"/>
<path d="M492,514 L539,514" fill="none" stroke="#8f8672" stroke-width="1.6" opacity="0.95" marker-end="url(#arw-8f8672)"/>
<path d="M664,514 L711,514" fill="none" stroke="#f4efe4" stroke-width="4.6" opacity="1"/>
<path d="M664,514 L711,514" fill="none" stroke="#8f8672" stroke-width="1.6" opacity="0.95" marker-end="url(#arw-8f8672)"/>
<path d="M836,514 L883,514" fill="none" stroke="#f4efe4" stroke-width="4.6" opacity="1"/>
<path d="M836,514 L883,514" fill="none" stroke="#8f8672" stroke-width="1.6" opacity="0.95" marker-end="url(#arw-8f8672)"/>
<path d="M1008,514 L1055,514" fill="none" stroke="#f4efe4" stroke-width="4.6" opacity="1"/>
<path d="M1008,514 L1055,514" fill="none" stroke="#8f8672" stroke-width="1.6" opacity="0.95" marker-end="url(#arw-8f8672)"/>
<rect x="30" y="502" width="118" height="24" rx="4" fill="#ffffff" stroke="#6a6a72" stroke-width="1.4"/>
<rect x="30" y="502" width="5" height="24" fill="#6a6a72"/>
<text x="39" y="517" font-size="8.2" fill="#2b2620">Quarry</text>
<rect x="202" y="502" width="118" height="24" rx="4" fill="#ffffff" stroke="#6a6a72" stroke-width="1.4"/>
<rect x="202" y="502" width="5" height="24" fill="#6a6a72"/>
<text x="211" y="517" font-size="8.2" fill="#2b2620">Masonry</text>
<rect x="374" y="502" width="118" height="24" rx="4" fill="#ffffff" stroke="#6a6a72" stroke-width="1.4"/>
<rect x="374" y="502" width="5" height="24" fill="#6a6a72"/>
<text x="383" y="517" font-size="8.2" fill="#2b2620">Courtyard</text>
<rect x="546" y="502" width="118" height="24" rx="4" fill="#ffffff" stroke="#6a6a72" stroke-width="1.4"/>
<rect x="546" y="502" width="5" height="24" fill="#6a6a72"/>
<text x="555" y="517" font-size="8.2" fill="#2b2620">Jester's Court</text>
<rect x="718" y="502" width="118" height="24" rx="4" fill="#ffffff" stroke="#6a6a72" stroke-width="1.4"/>
<rect x="718" y="502" width="5" height="24" fill="#6a6a72"/>
<text x="727" y="517" font-size="8.2" fill="#2b2620">Bell Tower</text>
<rect x="890" y="502" width="118" height="24" rx="4" fill="#ffffff" stroke="#6a6a72" stroke-width="1.4"/>
<rect x="890" y="502" width="5" height="24" fill="#6a6a72"/>
<text x="899" y="517" font-size="8.2" fill="#2b2620">Embassy</text>
<rect x="1062" y="502" width="118" height="24" rx="4" fill="#fdf3d0" stroke="#6a6a72" stroke-width="2.2"/>
<rect x="1062" y="502" width="5" height="24" fill="#6a6a72"/>
<text x="1071" y="517" font-size="8.2" fill="#2b2620">Senate Hall</text>
<polygon points="1172.0,510.4 1175.6,514.0 1172.0,517.6 1168.4,514.0" fill="#8a6d1a"/>
<path d="M148,576 L195,576" fill="none" stroke="#f4efe4" stroke-width="4.6" opacity="1"/>
<path d="M148,576 L195,576" fill="none" stroke="#8f8672" stroke-width="1.6" opacity="0.95" marker-end="url(#arw-8f8672)"/>
<path d="M320,576 L367,576" fill="none" stroke="#f4efe4" stroke-width="4.6" opacity="1"/>
<path d="M320,576 L367,576" fill="none" stroke="#8f8672" stroke-width="1.6" opacity="0.95" marker-end="url(#arw-8f8672)"/>
<path d="M492,576 L539,576" fill="none" stroke="#f4efe4" stroke-width="4.6" opacity="1"/>
<path d="M492,576 L539,576" fill="none" stroke="#8f8672" stroke-width="1.6" opacity="0.95" marker-end="url(#arw-8f8672)"/>
<path d="M664,576 L711,576" fill="none" stroke="#f4efe4" stroke-width="4.6" opacity="1"/>
<path d="M664,576 L711,576" fill="none" stroke="#8f8672" stroke-width="1.6" opacity="0.95" marker-end="url(#arw-8f8672)"/>
<rect x="30" y="564" width="118" height="24" rx="4" fill="#ffffff" stroke="#6a6a72" stroke-width="1.4"/>
<rect x="30" y="564" width="5" height="24" fill="#6a6a72"/>
<text x="39" y="579" font-size="8.2" fill="#2b2620">Peat Bog</text>
<rect x="202" y="564" width="118" height="24" rx="4" fill="#ffffff" stroke="#6a6a72" stroke-width="1.4"/>
<rect x="202" y="564" width="5" height="24" fill="#6a6a72"/>
<text x="211" y="579" font-size="8.2" fill="#2b2620">Alchemy</text>
<rect x="374" y="564" width="118" height="24" rx="4" fill="#ffffff" stroke="#6a6a72" stroke-width="1.4"/>
<rect x="374" y="564" width="5" height="24" fill="#6a6a72"/>
<text x="383" y="579" font-size="8.2" fill="#2b2620">Academy</text>
<rect x="546" y="564" width="118" height="24" rx="4" fill="#ffffff" stroke="#6a6a72" stroke-width="1.4"/>
<rect x="546" y="564" width="5" height="24" fill="#6a6a72"/>
<text x="555" y="579" font-size="8.2" fill="#2b2620">University</text>
<rect x="718" y="564" width="118" height="24" rx="4" fill="#fdf3d0" stroke="#6a6a72" stroke-width="2.2"/>
<rect x="718" y="564" width="5" height="24" fill="#6a6a72"/>
<text x="727" y="579" font-size="8.2" fill="#2b2620">Studium Generale</text>
<polygon points="828.0,572.4 831.6,576.0 828.0,579.6 824.4,576.0" fill="#8a6d1a"/>
</svg>