<svg xmlns="http://www.w3.org/2000/svg" width="1210" height="596" viewBox="0 0 1210 596" font-family="Georgia, serif">
<rect width="1210" height="596" fill="#f4efe4"/>
<defs><marker id="arw-2E5A8C" markerWidth="7" markerHeight="7" refX="6" refY="3" orient="auto"><path d="M0,0 L6,3 L0,6 Z" fill="#2E5A8C"/></marker><marker id="arw-9E2B25" markerWidth="7" markerHeight="7" refX="6" refY="3" orient="auto"><path d="M0,0 L6,3 L0,6 Z" fill="#9E2B25"/></marker><marker id="arw-1c9c8c" markerWidth="7" markerHeight="7" refX="6" refY="3" orient="auto"><path d="M0,0 L6,3 L0,6 Z" fill="#1c9c8c"/></marker><marker id="arw-C6A024" markerWidth="7" markerHeight="7" refX="6" refY="3" orient="auto"><path d="M0,0 L6,3 L0,6 Z" fill="#C6A024"/></marker><marker id="arw-6A3D8F" markerWidth="7" markerHeight="7" refX="6" refY="3" orient="auto"><path d="M0,0 L6,3 L0,6 Z" fill="#6A3D8F"/></marker><marker id="arw-CC6A1A" markerWidth="7" markerHeight="7" refX="6" refY="3" orient="auto"><path d="M0,0 L6,3 L0,6 Z" fill="#CC6A1A"/></marker><marker id="arw-3a7d3a" markerWidth="7" markerHeight="7" refX="6" refY="3" orient="auto"><path d="M0,0 L6,3 L0,6 Z" fill="#3a7d3a"/></marker><marker id="arw-b5347a" markerWidth="7" markerHeight="7" refX="6" refY="3" orient="auto"><path d="M0,0 L6,3 L0,6 Z" fill="#b5347a"/></marker><marker id="arw-2b6f9e" markerWidth="7" markerHeight="7" refX="6" refY="3" orient="auto"><path d="M0,0 L6,3 L0,6 Z" fill="#2b6f9e"/></marker><marker id="arw-8a6d1a" markerWidth="7" markerHeight="7" refX="6" refY="3" orient="auto"><path d="M0,0 L6,3 L0,6 Z" fill="#8a6d1a"/></marker><marker id="arw-5f5647" markerWidth="7" markerHeight="7" refX="6" refY="3" orient="auto"><path d="M0,0 L6,3 L0,6 Z" fill="#5f5647"/></marker><marker id="arw-7a2ea0" markerWidth="7" markerHeight="7" refX="6" refY="3" orient="auto"><path d="M0,0 L6,3 L0,6 Z" fill="#7a2ea0"/></marker><marker id="arw-0f8a7e" markerWidth="7" markerHeight="7" refX="6" refY="3" orient="auto"><path d="M0,0 L6,3 L0,6 Z" fill="#0f8a7e"/></marker><marker id="arw-a83232" markerWidth="7" markerHeight="7" refX="6" refY="3" orient="auto"><path d="M0,0 L6,3 L0,6 Z" fill="#a83232"/></marker><marker id="arw-8f8672" markerWidth="7" markerHeight="7" refX="6" refY="3" orient="auto"><path d="M0,0 L6,3 L0,6 Z" fill="#8f8672"/></marker></defs>
<text x="30" y="34" font-size="20" font-weight="bold" fill="#2b2620">Holding Paths</text>
<path d="M148,76 L195,76" fill="none" stroke="#f4efe4" stroke-width="4.6" opacity="1"/>
<path d="M148,76 L195,76" fill="none" stroke="#8f8672" stroke-width="1.6" opacity="0.95" marker-end="url(#arw-8f8672)"/>
<path d="M148,112 L195,112" fill="none" stroke="#f4efe4" stroke-width="4.6" opacity="1"/>
<path d="M148,112 L195,112" fill="none" stroke="#8f8672" stroke-width="1.6" opacity="0.95" marker-end="url(#arw-8f8672)"/>
<path d="M320,76 L344,76" fill="none" stroke="#f4efe4" stroke-width="4.6" opacity="1"/>
<path d="M320,76 L344,76" fill="none" stroke="#8f8672" stroke-width="1.6" opacity="0.95"/>
<path d="M344,76 L344,112" fill="none" stroke="#f4efe4" stroke-width="4.6" opacity="1"/>
<path d="M344,76 L344,112" fill="none" stroke="#8f8672" stroke-width="1.6" opacity="0.95"/>
<path d="M344,112 L540,112" fill="none" stroke="#f4efe4" stroke-width="4.6" opacity="1"/>
<path d="M344,112 L540,112" fill="none" stroke="#8f8672" stroke-width="1.6" opacity="0.95" marker-end="url(#arw-8f8672)"/>
<path d="M344,76 L368,76" fill="none" stroke="#f4efe4" stroke-width="4.6" opacity="1"/>
<path d="M344,76 L368,76" fill="none" stroke="#8f8672" stroke-width="1.6" opacity="0.95" marker-end="url(#arw-8f8672)"/>
<path d="M320,112 L367,112" fill="none" stroke="#f4efe4" stroke-width="4.6" opacity="1"/>
<path d="M320,112 L367,112" fill="none" stroke="#8f8672" stroke-width="1.6" opacity="0.95" marker-end="url(#arw-8f8672)"/>
<path d="M492,76 L516,76" fill="none" stroke="#f4efe4" stroke-width="4.6" opacity="1"/>
<path d="M492,76 L516,76" fill="none" stroke="#8f8672" stroke-width="1.6" opacity="0.95"/>
<path d="M516,76 L516,184" fill="none" stroke="#f4efe4" stroke-width="4.6" opacity="1"/>
<path d="M516,76 L516,184" fill="none" stroke="#8f8672" stroke-width="1.6" opacity="0.95"/>
<path d="M516,184 L712,184" fill="none" stroke="#f4efe4" stroke-width="4.6" opacity="1"/>
<path d="M516,184 L712,184" fill="none" stroke="#8f8672" stroke-width="1.6" opacity="0.95" marker-end="url(#arw-8f8672)"/>
<path d="M516,76 L540,76" fill="none" stroke="#f4efe4" stroke-width="4.6" opacity="1"/>
<path d="M516,76 L540,76" fill="none" stroke="#8f8672" stroke-width="1.6" opacity="0.95" marker-end="url(#arw-8f8672)"/>
<path d="M492,112 L539,112" fill="none" stroke="#f4efe4" stroke-width="4.6" opacity="1"/>
<path d="M492,112 L539,112" fill="none" stroke="#8f8672" stroke-width="1.6" opacity="0.95" marker-end="url(#arw-8f8672)"/>
<path d="M664,76 L688,76" fill="none" stroke="#f4efe4" stroke-width="4.6" opacity="1"/>
<path d="M664,76 L688,76" fill="none" stroke="#8f8672" stroke-width="1.6" opacity="0.95"/>
<path d="M688,76 L688,184" fill="none" stroke="#f4efe4" stroke-width="4.6" opacity="1"/>
<path d="M688,76 L688,184" fill="none" stroke="#8f8672" stroke-width="1.6" opacity="0.95"/>
<path d="M688,184 L712,184" fill="none" stroke="#f4efe4" stroke-width="4.6" opacity="1"/>
<path d="M688,184 L712,184" fill="none" stroke="#8f8672" stroke-width="1.6" opacity="0.95" marker-end="url(#arw-8f8672)"/>
<path d="M688,76 L712,76" fill="none" stroke="#f4efe4" stroke-width="4.6" opacity="1"/>
<path d="M688,76 L712,76" fill="none" stroke="#8f8672" stroke-width="1.6" opacity="0.95" marker-end="url(#arw-8f8672)"/>
<path d="M664,112 L711,112" fill="none" stroke="#f4efe4" stroke-width="4.6" opacity="1"/>
<path d="M664,112 L711,112" fill="none" stroke="#8f8672" stroke-width="1.6" opacity="0.95" marker-end="url(#arw-8f8672)"/>
<path d="M836,76 L883,76" fill="none" stroke="#f4efe4" stroke-width="4.6" opacity="1"/>
<path d="M836,76 L883,76" fill="none" stroke="#8f8672" stroke-width="1.6" opacity="0.95" marker-end="url(#arw-8f8672)"/>
<path d="M836,112 L883,112" fill="none" stroke="#f4efe4" stroke-width="4.6" opacity="1"/>
<path d="M836,112 L883,112" fill="none" stroke="#8f8672" stroke-width="1.6" opacity="0.95" marker-end="url(#arw-8f8672)"/>
<path d="M1008,112 L1032,112" fill="none" stroke="#f4efe4" stroke-width="4.6" opacity="1"/>
<path d="M1008,112 L1032,112" fill="none" stroke="#8f8672" stroke-width="1.6" opacity="0.95"/>
<path d="M1032,112 L1032,148" fill="none" stroke="#f4efe4" stroke-width="4.6" opacity="1"/>
<path d="M1032,112 L1032,148" fill="none" stroke="#8f8672" stroke-width="1.6" opacity="0.95"/>
<path d="M1032,148 L1056,148" fill="none" stroke="#f4efe4" stroke-width="4.6" opacity="1"/>
<path d="M1032,148 L1056,148" fill="none" stroke="#8f8672" stroke-width="1.6" opacity="0.95" marker-end="url(#arw-8f8672)"/>
<path d="M1032,112 L1056,112" fill="none" stroke="#f4efe4" stroke-width="4.6" opacity="1"/>
<path d="M1032,112 L1056,112" fill="none" stroke="#8f8672" stroke-width="1.6" opacity="0.95" marker-end="url(#arw-8f8672)"/>
<rect x="30" y="64" width="118" height="24" rx="4" fill="#ffffff" stroke="#6a6a72" stroke-width="1.4"/>
<rect x="30" y="64" width="5" height="24" fill="#6a6a72"/>
<text x="39" y="79" font-size="8.2" fill="#2b2620">Arable Land</text>
<rect x="30" y="100" width="118" height="24" rx="4" fill="#ffffff" stroke="#6a6a72" stroke-width="1.4"/>
<rect x="30" y="100" width="5" height="24" fill="#6a6a72"/>
<text x="39" y="115" font-size="8.2" fill="#2b2620">Forestry</text>
<rect x="202" y="64" width="118" height="24" rx="4" fill="#ffffff" stroke="#6a6a72" stroke-width="1.4"/>
<rect x="202" y="64" width="5" height="24" fill="#6a6a72"/>
<text x="211" y="79" font-size="8.2" fill="#2b2620">Animal Husbandry</text>
<rect x="202" y="100" width="118" height="24" rx="4" fill="#ffffff" stroke="#6a6a72" stroke-width="1.4"/>
<rect x="202" y="100" width="5" height="24" fill="#6a6a72"/>
<text x="211" y="115" font-size="8.2" fill="#2b2620">Carpentry</text>
<rect x="374" y="64" width="118" height="24" rx="4" fill="#ffffff" stroke="#6a6a72" stroke-width="1.4"/>
<rect x="374" y="64" width="5" height="24" fill="#6a6a72"/>
<text x="383" y="79" font-size="8.2" fill="#2b2620">Stable</text>
<rect x="374" y="100" width="118" height="24" rx="4" fill="#ffffff" stroke="#2E5A8C" stroke-width="1.4"/>
<rect x="374" y="100" width="5" height="24" fill="#2E5A8C"/>
<text x="383" y="115" font-size="8.2" fill="#2b2620">Joinery</text>
<rect x="546" y="64" width="118" height="24" rx="4" fill="#ffffff" stroke="#6a6a72" stroke-width="1.4"/>
<rect x="546" y="64" width="5" height="24" fill="#6a6a72"/>
<text x="555" y="79" font-size="8.2" fill="#2b2620">Caravanery</text>
<rect x="546" y="100" width="118" height="24" rx="4" fill="#ffffff" stroke="#6a6a72" stroke-width="1.4"/>
<rect x="546" y="100" width="5" height="24" fill="#6a6a72"/>
<text x="555" y="115" font-size="8.2" fill="#2b2620">Tannery</text>
<rect x="718" y="64" width="118" height="24" rx="4" fill="#ffffff" stroke="#6a6a72" stroke-width="1.4"/>
<rect x="718" y="64" width="5" height="24" fill="#6a6a72"/>
<text x="727" y="79" font-size="8.2" fill="#2b2620">Toll House</text>
<rect x="718" y="100" width="118" height="24" rx="4" fill="#ffffff" stroke="#2E5A8C" stroke-width="1.4"/>
<rect x="718" y="100" width="5" height="24" fill="#2E5A8C"/>
<text x="727" y="115" font-size="8.2" fill="#2b2620">Armory</text>
<rect x="718" y="172" width="118" height="24" rx="4" fill="#ffffff" stroke="#6a6a72" stroke-width="1.4"/>
<rect x="718" y="172" width="5" height="24" fill="#6a6a72"/>
<text x="727" y="187" font-size="8.2" fill="#2b2620">Saddlery</text>
<rect x="890" y="64" width="118" height="24" rx="4" fill="#ffffff" stroke="#9E2B25" stroke-width="1.4"/>
<rect x="890" y="64" width="5" height="24" fill="#9E2B25"/>
<text x="899" y="79" font-size="8.2" fill="#2b2620">Beacon Towers</text>
<rect x="890" y="100" width="118" height="24" rx="4" fill="#ffffff" stroke="#2E5A8C" stroke-width="1.4"/>
<rect x="890" y="100" width="5" height="24" fill="#2E5A8C"/>
<text x="899" y="115" font-size="8.2" fill="#2b2620">Gilded Foundry</text>
<rect x="1062" y="100" width="118" height="24" rx="4" fill="#ffffff" stroke="#2E5A8C" stroke-width="1.4"/>
<rect x="1062" y="100" width="5" height="24" fill="#2E5A8C"/>
<text x="1071" y="115" font-size="8.2" fill="#2b2620">Court Armoury</text>
<rect x="1062" y="136" width="118" height="24" rx="4" fill="#ffffff" stroke="#6a6a72" stroke-width="1.4"/>
<rect x="1062" y="136" width="5" height="24" fill="#6a6a72"/>
<text x="1071" y="151" font-size="8.2" fill="#2b2620">Jewelry Foundry</text>
<path d="M148,246 L195,246" fill="none" stroke="#f4efe4" stroke-width="4.6" opacity="1"/>
<path d="M148,246 L195,246" fill="none" stroke="#8f8672" stroke-width="1.6" opacity="0.95" marker-end="url(#arw-8f8672)"/>
<path d="M320,246 L367,246" fill="none" stroke="#f4efe4" stroke-width="4.6" opacity="1"/>
<path d="M320,246 L367,246" fill="none" stroke="#8f8672" stroke-width="1.6" opacity="0.95" marker-end="url(#arw-8f8672)"/>
<rect x="30" y="234" width="118" height="24" rx="4" fill="#ffffff" stroke="#6a6a72" stroke-width="1.4"/>
<rect x="30" y="234" width="5" height="24" fill="#6a6a72"/>
<text x="39" y="249" font-size="8.2" fill="#2b2620">Arable Land</text>
<rect x="202" y="234" width="118" height="24" rx="4" fill="#ffffff" stroke="#6a6a72" stroke-width="1.4"/>
<rect x="202" y="234" width="5" height="24" fill="#6a6a72"/>
<text x="211" y="249" font-size="8.2" fill="#2b2620">Vineyard</text>
<rect x="374" y="234" width="118" height="24" rx="4" fill="#ffffff" stroke="#2E5A8C" stroke-width="1.4"/>
<rect x="374" y="234" width="5" height="24" fill="#2E5A8C"/>
<text x="383" y="249" font-size="8.2" fill="#2b2620">Winery</text>
<path d="M148,308 L195,308" fill="none" stroke="#f4efe4" stroke-width="4.6" opacity="1"/>
<path d="M148,308 L195,308" fill="none" stroke="#8f8672" stroke-width="1.6" opacity="0.95" marker-end="url(#arw-8f8672)"/>
<path d="M320,308 L367,308" fill="none" stroke="#f4efe4" stroke-width="4.6" opacity="1"/>
<path d="M320,308 L367,308" fill="none" stroke="#8f8672" stroke-width="1.6" opacity="0.95" marker-end="url(#arw-8f8672)"/>
<rect x="30" y="296" width="118" height="24" rx="4" fill="#ffffff" stroke="#6a6a72" stroke-width="1.4"/>
<rect x="30" y="296" width="5" height="24" fill="#6a6a72"/>
<text x="39" y="311" font-size="8.2" fill="#2b2620">Arable Land</text>
<rect x="202" y="296" width="118" height="24" rx="4" fill="#ffffff" stroke="#6a6a72" stroke-width="1.4"/>
<rect x="202" y="296" width="5" height="24" fill="#6a6a72"/>
<text x="211" y="311" font-size="8.2" fill="#2b2620">Orchard</text>
<rect x="374" y="296" width="118" height="24" rx="4" fill="#ffffff" stroke="#2E5A8C" stroke-width="1.4"/>
<rect x="374" y="296" width="5" height="24" fill="#2E5A8C"/>
<text x="383" y="311" font-size="8.2" fill="#2b2620">Cidery</text>
<path d="M148,370 L195,370" fill="none" stroke="#f4efe4" stroke-width="4.6" opacity="1"/>
<path d="M148,370 L195,370" fill="none" stroke="#8f8672" stroke-width="1.6" opacity="0.95" marker-end="url(#arw-8f8672)"/>
<path d="M148,406 L195,406" fill="none" stroke="#f4efe4" stroke-width="4.6" opacity="1"/>
<path d="M148,406 L195,406" fill="none" stroke="#8f8672" stroke-width="1.6" opacity="0.95" marker-end="url(#arw-8f8672)"/>
<path d="M148,442 L195,442" fill="none" stroke="#f4efe4" stroke-width="4.6" opacity="1"/>
<path d="M148,442 L195,442" fill="none" stroke="#8f8672" stroke-width="1.6" opacity="0.95" marker-end="url(#arw-8f8672)"/>
<path d="M148,478 L195,478" fill="none" stroke="#f4efe4" stroke-width="4.6" opacity="1"/>
<path d="M148,478 L195,478" fill="none" stroke="#8f8672" stroke-width="1.6" opacity="0.95" marker-end="url(#arw-8f8672)"/>
<path d="M320,370 L344,370" fill="none" stroke="#f4efe4" stroke-width="4.6" opacity="1"/>
<path d="M320,370 L344,370" fill="none" stroke="#8f8672" stroke-width="1.6" opacity="0.95"/>
<path d="M344,370 L368,370" fill="none" stroke="#f4efe4" stroke-width="4.6" opacity="1"/>
<path d="M344,370 L368,370" fill="none" stroke="#8f8672" stroke-width="1.6" opacity="0.95" marker-end="url(#arw-8f8672)"/>
<path d="M344,370 L884,370" fill="none" stroke="#f4efe4" stroke-width="4.6" opacity="1"/>
<path d="M344,370 L884,370" fill="none" stroke="#8f8672" stroke-width="1.6" opacity="0.95" marker-end="url(#arw-8f8672)"/>
<path d="M320,406 L367,406" fill="none" stroke="#f4efe4" stroke-width="4.6" opacity="1"/>
<path d="M320,406 L367,406" fill="none" stroke="#8f8672" stroke-width="1.6" opacity="0.95" marker-end="url(#arw-8f8672)"/>
<path d="M320,442 L367,442" fill="none" stroke="#f4efe4" stroke-width="4.6" opacity="1"/>
<path d="M320,442 L367,442" fill="none" stroke="#8f8672" stroke-width="1.6" opacity="0.95" marker-end="url(#arw-8f8672)"/>
<path d="M320,478 L568,478 Q576,478 576,469 L576,379 Q576,370 586,370 L883,370" fill="none" stroke="#f4efe4" stroke-width="4.6" opacity="1"/>
<path d="M320,478 L568,478 Q576,478 576,469 L576,379 Q576,370 586,370 L883,370" fill="none" stroke="#8f8672" stroke-width="1.6" opacity="0.95" marker-end="url(#arw-8f8672)"/>
<path d="M492,370 L539,370" fill="none" stroke="#f4efe4" stroke-width="4.6" opacity="1"/>
<path d="M492,370 L539,370" fill="none" stroke="#8f8672" stroke-width="1.6" opacity="0.95" marker-end="url(#arw-8f8672)"/>
<path d="M492,406 L539,406" fill="none" stroke="#f4efe4" stroke-width="4.6" opacity="1"/>
<path d="M492,406 L539,406" fill="none" stroke="#8f8672" stroke-width="1.6" opacity="0.95" marker-end="url(#arw-8f8672)"/>
<path d="M492,442 L662,442 Q671,442 671,433 L671,379 Q671,370 680,370 L883,370" fill="none" stroke="#f4efe4" stroke-width="4.6" opacity="1"/>
<path d="M492,442 L662,442 Q671,442 671,433 L671,379 Q671,370 680,370 L883,370" fill="none" stroke="#8f8672" stroke-width="1.6" opacity="0.95" marker-end="url(#arw-8f8672)"/>
<path d="M664,370 L711,370" fill="none" stroke="#f4efe4" stroke-width="4.6" opacity="1"/>
<path d="M664,370 L711,370" fill="none" stroke="#8f8672" stroke-width="1.6" opacity="0.95" marker-end="url(#arw-8f8672)"/>
<path d="M664,406 L757,406 Q766,406 766,397 L766,379 Q766,370 775,370 L883,370" fill="none" stroke="#f4efe4" stroke-width="4.6" opacity="1"/>
<path d="M664,406 L757,406 Q766,406 766,397 L766,379 Q766,370 775,370 L883,370" fill="none" stroke="#8f8672" stroke-width="1.6" opacity="0.95" marker-end="url(#arw-8f8672)"/>
<path d="M836,370 L883,370" fill="none" stroke="#f4efe4" stroke-width="4.6" opacity="1"/>
<path d="M836,370 L883,370" fill="none" stroke="#8f8672" stroke-width="1.6" opacity="0.95" marker-end="url(#arw-8f8672)"/>
<rect x="30" y="358" width="118" height="24" rx="4" fill="#ffffff" stroke="#6a6a72" stroke-width="1.4"/>
<rect x="30" y="358" width="5" height="24" fill="#6a6a72"/>
<text x="39" y="373" font-size="8.2" fill="#2b2620">Quarry</text>
<rect x="30" y="394" width="118" height="24" rx="4" fill="#ffffff" stroke="#6a6a72" stroke-width="1.4"/>
<rect x="30" y="394" width="5" height="24" fill="#6a6a72"/>
<text x="39" y="409" font-size="8.2" fill="#2b2620">Mine</text>
<rect x="30" y="430" width="118" height="24" rx="4" fill="#ffffff" stroke="#6a6a72" stroke-width="1.4"/>
<rect x="30" y="430" width="5" height="24" fill="#6a6a72"/>
<text x="39" y="445" font-size="8.2" fill="#2b2620">Apiary</text>
<rect x="30" y="466" width="118" height="24" rx="4" fill="#ffffff" stroke="#6a6a72" stroke-width="1.4"/>
<rect x="30" y="466" width="5" height="24" fill="#6a6a72"/>
<text x="39" y="481" font-size="8.2" fill="#2b2620">Forestry</text>
<rect x="202" y="358" width="118" height="24" rx="4" fill="#ffffff" stroke="#6a6a72" stroke-width="1.4"/>
<rect x="202" y="358" width="5" height="24" fill="#6a6a72"/>
<text x="211" y="373" font-size="8.2" fill="#2b2620">Masonry</text>
<rect x="202" y="394" width="118" height="24" rx="4" fill="#ffffff" stroke="#6a6a72" stroke-width="1.4"/>
<rect x="202" y="394" width="5" height="24" fill="#6a6a72"/>
<text x="211" y="409" font-size="8.2" fill="#2b2620">Furnace</text>
<rect x="202" y="430" width="118" height="24" rx="4" fill="#ffffff" stroke="#2E5A8C" stroke-width="1.4"/>
<rect x="202" y="430" width="5" height="24" fill="#2E5A8C"/>
<text x="211" y="445" font-size="8.2" fill="#2b2620">Meadery</text>
<rect x="202" y="466" width="118" height="24" rx="4" fill="#ffffff" stroke="#6a6a72" stroke-width="1.4"/>
<rect x="202" y="466" width="5" height="24" fill="#6a6a72"/>
<text x="211" y="481" font-size="8.2" fill="#2b2620">Carpentry</text>
<rect x="374" y="358" width="118" height="24" rx="4" fill="#ffffff" stroke="#6a6a72" stroke-width="1.4"/>
<rect x="374" y="358" width="5" height="24" fill="#6a6a72"/>
<text x="383" y="373" font-size="8.2" fill="#2b2620">Courtyard</text>
<rect x="374" y="394" width="118" height="24" rx="4" fill="#ffffff" stroke="#2E5A8C" stroke-width="1.4"/>
<rect x="374" y="394" width="5" height="24" fill="#2E5A8C"/>
<text x="383" y="409" font-size="8.2" fill="#2b2620">Blacksmith</text>
<rect x="374" y="430" width="118" height="24" rx="4" fill="#ffffff" stroke="#6a6a72" stroke-width="1.4"/>
<rect x="374" y="430" width="5" height="24" fill="#6a6a72"/>
<text x="383" y="445" font-size="8.2" fill="#2b2620">Bakery</text>
<rect x="546" y="358" width="118" height="24" rx="4" fill="#ffffff" stroke="#2E5A8C" stroke-width="1.4"/>
<rect x="546" y="358" width="5" height="24" fill="#2E5A8C"/>
<text x="555" y="373" font-size="8.2" fill="#2b2620">Market Square</text>
<rect x="546" y="394" width="118" height="24" rx="4" fill="#ffffff" stroke="#2E5A8C" stroke-width="1.4"/>
<rect x="546" y="394" width="5" height="24" fill="#2E5A8C"/>
<text x="555" y="409" font-size="8.2" fill="#2b2620">Forge</text>
<rect x="718" y="358" width="118" height="24" rx="4" fill="#ffffff" stroke="#6a6a72" stroke-width="1.4"/>
<rect x="718" y="358" width="5" height="24" fill="#6a6a72"/>
<text x="727" y="373" font-size="8.2" fill="#2b2620">Weavery</text>
<rect x="890" y="358" width="118" height="24" rx="4" fill="#ffffff" stroke="#2E5A8C" stroke-width="1.4"/>
<rect x="890" y="358" width="5" height="24" fill="#2E5A8C"/>
<text x="899" y="373" font-size="8.2" fill="#2b2620">Mill</text>
<path d="M148,540 L195,540" fill="none" stroke="#f4efe4" stroke-width="4.6" opacity="1"/>
<path d="M148,540 L195,540" fill="none" stroke="#8f8672" stroke-width="1.6" opacity="0.95" marker-end="url(#arw-8f8672)"/>
<path d="M320,540 L367,540" fill="none" stroke="#f4efe4" stroke-width="4.6" opacity="1"/>
<path d="M320,540 L367,540" fill="none" stroke="#8f8672" stroke-width="1.6" opacity="0.95" marker-end="url(#arw-8f8672)"/>
<path d="M492,540 L539,540" fill="none" stroke="#f4efe4" stroke-width="4.6" opacity="1"/>
<path d="M492,540 L539,540" fill="none" stroke="#8f8672" stroke-width="1.6" opacity="0.95" marker-end="url(#arw-8f8672)"/>
<rect x="30" y="528" width="118" height="24" rx="4" fill="#ffffff" stroke="#6a6a72" stroke-width="1.4"/>
<rect x="30" y="528" width="5" height="24" fill="#6a6a72"/>
<text x="39" y="543" font-size="8.2" fill="#2b2620">Forestry</text>
<rect x="202" y="528" width="118" height="24" rx="4" fill="#ffffff" stroke="#6a6a72" stroke-width="1.4"/>
<rect x="202" y="528" width="5" height="24" fill="#6a6a72"/>
<text x="211" y="543" font-size="8.2" fill="#2b2620">Carpentry</text>
<rect x="374" y="528" width="118" height="24" rx="4" fill="#ffffff" stroke="#6a6a72" stroke-width="1.4"/>
<rect x="374" y="528" width="5" height="24" fill="#6a6a72"/>
<text x="383" y="543" font-size="8.2" fill="#2b2620">Fletchery</text>
<rect x="546" y="528" width="118" height="24" rx="4" fill="#ffffff" stroke="#9E2B25" stroke-width="1.4"/>
<rect x="546" y="528" width="5" height="24" fill="#9E2B25"/>
<text x="555" y="543" font-size="8.2" fill="#2b2620">Tiltyard</text>
</svg>