<svg xmlns="http://www.w3.org/2000/svg" width="1554" height="550" viewBox="0 0 1554 550" font-family="Georgia, serif">
<rect width="1554" height="550" fill="#f4efe4"/>
<defs><marker id="arw-2E5A8C" markerWidth="7" markerHeight="7" refX="6" refY="3" orient="auto"><path d="M0,0 L6,3 L0,6 Z" fill="#2E5A8C"/></marker><marker id="arw-9E2B25" markerWidth="7" markerHeight="7" refX="6" refY="3" orient="auto"><path d="M0,0 L6,3 L0,6 Z" fill="#9E2B25"/></marker><marker id="arw-1c9c8c" markerWidth="7" markerHeight="7" refX="6" refY="3" orient="auto"><path d="M0,0 L6,3 L0,6 Z" fill="#1c9c8c"/></marker><marker id="arw-C6A024" markerWidth="7" markerHeight="7" refX="6" refY="3" orient="auto"><path d="M0,0 L6,3 L0,6 Z" fill="#C6A024"/></marker><marker id="arw-6A3D8F" markerWidth="7" markerHeight="7" refX="6" refY="3" orient="auto"><path d="M0,0 L6,3 L0,6 Z" fill="#6A3D8F"/></marker><marker id="arw-CC6A1A" markerWidth="7" markerHeight="7" refX="6" refY="3" orient="auto"><path d="M0,0 L6,3 L0,6 Z" fill="#CC6A1A"/></marker><marker id="arw-3a7d3a" markerWidth="7" markerHeight="7" refX="6" refY="3" orient="auto"><path d="M0,0 L6,3 L0,6 Z" fill="#3a7d3a"/></marker><marker id="arw-b5347a" markerWidth="7" markerHeight="7" refX="6" refY="3" orient="auto"><path d="M0,0 L6,3 L0,6 Z" fill="#b5347a"/></marker><marker id="arw-2b6f9e" markerWidth="7" markerHeight="7" refX="6" refY="3" orient="auto"><path d="M0,0 L6,3 L0,6 Z" fill="#2b6f9e"/></marker><marker id="arw-8a6d1a" markerWidth="7" markerHeight="7" refX="6" refY="3" orient="auto"><path d="M0,0 L6,3 L0,6 Z" fill="#8a6d1a"/></marker><marker id="arw-5f5647" markerWidth="7" markerHeight="7" refX="6" refY="3" orient="auto"><path d="M0,0 L6,3 L0,6 Z" fill="#5f5647"/></marker><marker id="arw-7a2ea0" markerWidth="7" markerHeight="7" refX="6" refY="3" orient="auto"><path d="M0,0 L6,3 L0,6 Z" fill="#7a2ea0"/></marker><marker id="arw-0f8a7e" markerWidth="7" markerHeight="7" refX="6" refY="3" orient="auto"><path d="M0,0 L6,3 L0,6 Z" fill="#0f8a7e"/></marker><marker id="arw-a83232" markerWidth="7" markerHeight="7" refX="6" refY="3" orient="auto"><path d="M0,0 L6,3 L0,6 Z" fill="#a83232"/></marker><marker id="arw-8f8672" markerWidth="7" markerHeight="7" refX="6" refY="3" orient="auto"><path d="M0,0 L6,3 L0,6 Z" fill="#8f8672"/></marker></defs>
<text x="30" y="34" font-size="20" font-weight="bold" fill="#2b2620">Holding Paths</text>
<path d="M148,76 L195,76" fill="none" stroke="#f4efe4" stroke-width="4.6" opacity="1"/>
<path d="M148,76 L195,76" fill="none" stroke="#8f8672" stroke-width="1.6" opacity="0.95" marker-end="url(#arw-8f8672)"/>
<path d="M148,148 L195,148" fill="none" stroke="#f4efe4" stroke-width="4.6" opacity="1"/>
<path d="M148,148 L195,148" fill="none" stroke="#8f8672" stroke-width="1.6" opacity="0.95" marker-end="url(#arw-8f8672)"/>
<path d="M320,76 L367,76" fill="none" stroke="#f4efe4" stroke-width="4.6" opacity="1"/>
<path d="M320,76 L367,76" fill="none" stroke="#8f8672" stroke-width="1.6" opacity="0.95" marker-end="url(#arw-8f8672)"/>
<path d="M320,148 L367,148" fill="none" stroke="#f4efe4" stroke-width="4.6" opacity="1"/>
<path d="M320,148 L367,148" fill="none" stroke="#8f8672" stroke-width="1.6" opacity="0.95" marker-end="url(#arw-8f8672)"/>
<path d="M492,76 L539,76" fill="none" stroke="#f4efe4" stroke-width="4.6" opacity="1"/>
<path d="M492,76 L539,76" fill="none" stroke="#8f8672" stroke-width="1.6" opacity="0.95" marker-end="url(#arw-8f8672)"/>
<path d="M492,112 L507,112 Q516,112 516,103 L516,85 Q516,76 525,76 L539,76" fill="none" stroke="#f4efe4" stroke-width="4.6" opacity="1"/>
<path d="M492,112 L507,112 Q516,112 516,103 L516,85 Q516,76 525,76 L539,76" fill="none" stroke="#8f8672" stroke-width="1.6" opacity="0.95" marker-end="url(#arw-8f8672)"/>
<path d="M492,148 L539,148" fill="none" stroke="#f4efe4" stroke-width="4.6" opacity="1"/>
<path d="M492,148 L539,148" fill="none" stroke="#8f8672" stroke-width="1.6" opacity="0.95" marker-end="url(#arw-8f8672)"/>
<path d="M664,76 L711,76" fill="none" stroke="#f4efe4" stroke-width="4.6" opacity="1"/>
<path d="M664,76 L711,76" fill="none" stroke="#8f8672" stroke-width="1.6" opacity="0.95" marker-end="url(#arw-8f8672)"/>
<path d="M836,76 L883,76" fill="none" stroke="#f4efe4" stroke-width="4.6" opacity="1"/>
<path d="M836,76 L883,76" fill="none" stroke="#8f8672" stroke-width="1.6" opacity="0.95" marker-end="url(#arw-8f8672)"/>
<path d="M1008,76 L1055,76" fill="none" stroke="#f4efe4" stroke-width="4.6" opacity="1"/>
<path d="M1008,76 L1055,76" fill="none" stroke="#8f8672" stroke-width="1.6" opacity="0.95" marker-end="url(#arw-8f8672)"/>
<rect x="30" y="64" width="118" height="24" rx="4" fill="#ffffff" stroke="#6a6a72" stroke-width="1.4"/>
<rect x="30" y="64" width="5" height="24" fill="#6a6a72"/>
<text x="39" y="79" font-size="8.2" fill="#2b2620">Quarry</text>
<rect x="30" y="136" width="118" height="24" rx="4" fill="#ffffff" stroke="#6a6a72" stroke-width="1.4"/>
<rect x="30" y="136" width="5" height="24" fill="#6a6a72"/>
<text x="39" y="151" font-size="8.2" fill="#2b2620">Forestry</text>
<rect x="202" y="64" width="118" height="24" rx="4" fill="#ffffff" stroke="#6a6a72" stroke-width="1.4"/>
<rect x="202" y="64" width="5" height="24" fill="#6a6a72"/>
<text x="211" y="79" font-size="8.2" fill="#2b2620">Masonry</text>
<rect x="202" y="136" width="118" height="24" rx="4" fill="#ffffff" stroke="#6a6a72" stroke-width="1.4"/>
<rect x="202" y="136" width="5" height="24" fill="#6a6a72"/>
<text x="211" y="151" font-size="8.2" fill="#2b2620">Carpentry</text>
<rect x="374" y="64" width="118" height="24" rx="4" fill="#ffffff" stroke="#6a6a72" stroke-width="1.4"/>
<rect x="374" y="64" width="5" height="24" fill="#6a6a72"/>
<text x="383" y="79" font-size="8.2" fill="#2b2620">Courtyard</text>
<rect x="374" y="100" width="118" height="24" rx="4" fill="#ffffff" stroke="#6a6a72" stroke-width="1.4"/>
<rect x="374" y="100" width="5" height="24" fill="#6a6a72"/>
<text x="383" y="115" font-size="8.2" fill="#2b2620">Common Land</text>
<rect x="374" y="136" width="118" height="24" rx="4" fill="#ffffff" stroke="#6a6a72" stroke-width="1.4"/>
<rect x="374" y="136" width="5" height="24" fill="#6a6a72"/>
<text x="383" y="151" font-size="8.2" fill="#2b2620">Fletchery</text>
<rect x="546" y="64" width="118" height="24" rx="4" fill="#ffffff" stroke="#9E2B25" stroke-width="1.4"/>
<rect x="546" y="64" width="5" height="24" fill="#9E2B25"/>
<text x="555" y="79" font-size="8.2" fill="#2b2620">Conditioning Field</text>
<rect x="546" y="136" width="118" height="24" rx="4" fill="#ffffff" stroke="#9E2B25" stroke-width="1.4"/>
<rect x="546" y="136" width="5" height="24" fill="#9E2B25"/>
<text x="555" y="151" font-size="8.2" fill="#2b2620">Tiltyard</text>
<rect x="718" y="64" width="118" height="24" rx="4" fill="#ffffff" stroke="#9E2B25" stroke-width="1.4"/>
<rect x="718" y="64" width="5" height="24" fill="#9E2B25"/>
<text x="727" y="79" font-size="8.2" fill="#2b2620">Castle Yard</text>
<rect x="890" y="64" width="118" height="24" rx="4" fill="#ffffff" stroke="#9E2B25" stroke-width="1.4"/>
<rect x="890" y="64" width="5" height="24" fill="#9E2B25"/>
<text x="899" y="79" font-size="8.2" fill="#2b2620">Grand Tournament</text>
<rect x="1062" y="64" width="118" height="24" rx="4" fill="#fdf3d0" stroke="#9E2B25" stroke-width="2.2"/>
<rect x="1062" y="64" width="5" height="24" fill="#9E2B25"/>
<text x="1071" y="79" font-size="8.2" fill="#2b2620">Royal Pavilion</text>
<polygon points="1172.0,72.4 1175.6,76.0 1172.0,79.6 1168.4,76.0" fill="#8a6d1a"/>
<path d="M148,210 L195,210" fill="none" stroke="#f4efe4" stroke-width="4.6" opacity="1"/>
<path d="M148,210 L195,210" fill="none" stroke="#8f8672" stroke-width="1.6" opacity="0.95" marker-end="url(#arw-8f8672)"/>
<path d="M320,210 L367,210" fill="none" stroke="#f4efe4" stroke-width="4.6" opacity="1"/>
<path d="M320,210 L367,210" fill="none" stroke="#8f8672" stroke-width="1.6" opacity="0.95" marker-end="url(#arw-8f8672)"/>
<path d="M492,210 L539,210" fill="none" stroke="#f4efe4" stroke-width="4.6" opacity="1"/>
<path d="M492,210 L539,210" fill="none" stroke="#8f8672" stroke-width="1.6" opacity="0.95" marker-end="url(#arw-8f8672)"/>
<path d="M664,210 L711,210" fill="none" stroke="#f4efe4" stroke-width="4.6" opacity="1"/>
<path d="M664,210 L711,210" fill="none" stroke="#8f8672" stroke-width="1.6" opacity="0.95" marker-end="url(#arw-8f8672)"/>
<path d="M836,210 L883,210" fill="none" stroke="#f4efe4" stroke-width="4.6" opacity="1"/>
<path d="M836,210 L883,210" fill="none" stroke="#8f8672" stroke-width="1.6" opacity="0.95" marker-end="url(#arw-8f8672)"/>
<path d="M1008,210 L1055,210" fill="none" stroke="#f4efe4" stroke-width="4.6" opacity="1"/>
<path d="M1008,210 L1055,210" fill="none" stroke="#8f8672" stroke-width="1.6" opacity="0.95" marker-end="url(#arw-8f8672)"/>
<rect x="30" y="198" width="118" height="24" rx="4" fill="#ffffff" stroke="#6a6a72" stroke-width="1.4"/>
<rect x="30" y="198" width="5" height="24" fill="#6a6a72"/>
<text x="39" y="213" font-size="8.2" fill="#2b2620">Quarry</text>
<rect x="202" y="198" width="118" height="24" rx="4" fill="#ffffff" stroke="#6a6a72" stroke-width="1.4"/>
<rect x="202" y="198" width="5" height="24" fill="#6a6a72"/>
<text x="211" y="213" font-size="8.2" fill="#2b2620">Masonry</text>
<rect x="374" y="198" width="118" height="24" rx="4" fill="#ffffff" stroke="#6a6a72" stroke-width="1.4"/>
<rect x="374" y="198" width="5" height="24" fill="#6a6a72"/>
<text x="383" y="213" font-size="8.2" fill="#2b2620">Courtyard</text>
<rect x="546" y="198" width="118" height="24" rx="4" fill="#ffffff" stroke="#C6A024" stroke-width="1.4"/>
<rect x="546" y="198" width="5" height="24" fill="#C6A024"/>
<text x="555" y="213" font-size="8.2" fill="#2b2620">Episcopal Court</text>
<rect x="718" y="198" width="118" height="24" rx="4" fill="#ffffff" stroke="#C6A024" stroke-width="1.4"/>
<rect x="718" y="198" width="5" height="24" fill="#C6A024"/>
<text x="727" y="213" font-size="8.2" fill="#2b2620">Interrogation Chambers</text>
<rect x="890" y="198" width="118" height="24" rx="4" fill="#ffffff" stroke="#C6A024" stroke-width="1.4"/>
<rect x="890" y="198" width="5" height="24" fill="#C6A024"/>
<text x="899" y="213" font-size="8.2" fill="#2b2620">Execution Dock</text>
<rect x="1062" y="198" width="118" height="24" rx="4" fill="#fdf3d0" stroke="#C6A024" stroke-width="2.2"/>
<rect x="1062" y="198" width="5" height="24" fill="#C6A024"/>
<text x="1071" y="213" font-size="8.2" fill="#2b2620">Inquisitorial Palace</text>
<polygon points="1172.0,206.4 1175.6,210.0 1172.0,213.6 1168.4,210.0" fill="#8a6d1a"/>
<path d="M148,272 L195,272" fill="none" stroke="#f4efe4" stroke-width="4.6" opacity="1"/>
<path d="M148,272 L195,272" fill="none" stroke="#8f8672" stroke-width="1.6" opacity="0.95" marker-end="url(#arw-8f8672)"/>
<path d="M320,272 L367,272" fill="none" stroke="#f4efe4" stroke-width="4.6" opacity="1"/>
<path d="M320,272 L367,272" fill="none" stroke="#8f8672" stroke-width="1.6" opacity="0.95" marker-end="url(#arw-8f8672)"/>
<path d="M492,272 L539,272" fill="none" stroke="#f4efe4" stroke-width="4.6" opacity="1"/>
<path d="M492,272 L539,272" fill="none" stroke="#8f8672" stroke-width="1.6" opacity="0.95" marker-end="url(#arw-8f8672)"/>
<path d="M664,272 L711,272" fill="none" stroke="#f4efe4" stroke-width="4.6" opacity="1"/>
<path d="M664,272 L711,272" fill="none" stroke="#8f8672" stroke-width="1.6" opacity="0.95" marker-end="url(#arw-8f8672)"/>
<path d="M836,272 L883,272" fill="none" stroke="#f4efe4" stroke-width="4.6" opacity="1"/>
<path d="M836,272 L883,272" fill="none" stroke="#8f8672" stroke-width="1.6" opacity="0.95" marker-end="url(#arw-8f8672)"/>
<rect x="30" y="260" width="118" height="24" rx="4" fill="#ffffff" stroke="#6a6a72" stroke-width="1.4"/>
<rect x="30" y="260" width="5" height="24" fill="#6a6a72"/>
<text x="39" y="275" font-size="8.2" fill="#2b2620">Peat Bog</text>
<rect x="202" y="260" width="118" height="24" rx="4" fill="#ffffff" stroke="#6a6a72" stroke-width="1.4"/>
<rect x="202" y="260" width="5" height="24" fill="#6a6a72"/>
<text x="211" y="275" font-size="8.2" fill="#2b2620">Alchemy</text>
<rect x="374" y="260" width="118" height="24" rx="4" fill="#ffffff" stroke="#6a6a72" stroke-width="1.4"/>
<rect x="374" y="260" width="5" height="24" fill="#6a6a72"/>
<text x="383" y="275" font-size="8.2" fill="#2b2620">Academy</text>
<rect x="546" y="260" width="118" height="24" rx="4" fill="#ffffff" stroke="#C6A024" stroke-width="1.4"/>
<rect x="546" y="260" width="5" height="24" fill="#C6A024"/>
<text x="555" y="275" font-size="8.2" fill="#2b2620">Abbey</text>
<rect x="718" y="260" width="118" height="24" rx="4" fill="#ffffff" stroke="#C6A024" stroke-width="1.4"/>
<rect x="718" y="260" width="5" height="24" fill="#C6A024"/>
<text x="727" y="275" font-size="8.2" fill="#2b2620">Monastery</text>
<rect x="890" y="260" width="118" height="24" rx="4" fill="#fdf3d0" stroke="#C6A024" stroke-width="2.2"/>
<rect x="890" y="260" width="5" height="24" fill="#C6A024"/>
<text x="899" y="275" font-size="8.2" fill="#2b2620">Papal Palace</text>
<polygon points="1000.0,268.4 1003.6,272.0 1000.0,275.6 996.4,272.0" fill="#8a6d1a"/>
<path d="M148,334 L195,334" fill="none" stroke="#f4efe4" stroke-width="4.6" opacity="1"/>
<path d="M148,334 L195,334" fill="none" stroke="#8f8672" stroke-width="1.6" opacity="0.95" marker-end="url(#arw-8f8672)"/>
<path d="M320,334 L367,334" fill="none" stroke="#f4efe4" stroke-width="4.6" opacity="1"/>
<path d="M320,334 L367,334" fill="none" stroke="#8f8672" stroke-width="1.6" opacity="0.95" marker-end="url(#arw-8f8672)"/>
<path d="M492,334 L539,334" fill="none" stroke="#f4efe4" stroke-width="4.6" opacity="1"/>
<path d="M492,334 L539,334" fill="none" stroke="#8f8672" stroke-width="1.6" opacity="0.95" marker-end="url(#arw-8f8672)"/>
<path d="M664,334 L711,334" fill="none" stroke="#f4efe4" stroke-width="4.6" opacity="1"/>
<path d="M664,334 L711,334" fill="none" stroke="#8f8672" stroke-width="1.6" opacity="0.95" marker-end="url(#arw-8f8672)"/>
<path d="M836,334 L883,334" fill="none" stroke="#f4efe4" stroke-width="4.6" opacity="1"/>
<path d="M836,334 L883,334" fill="none" stroke="#8f8672" stroke-width="1.6" opacity="0.95" marker-end="url(#arw-8f8672)"/>
<rect x="30" y="322" width="118" height="24" rx="4" fill="#ffffff" stroke="#6a6a72" stroke-width="1.4"/>
<rect x="30" y="322" width="5" height="24" fill="#6a6a72"/>
<text x="39" y="337" font-size="8.2" fill="#2b2620">Peat Bog</text>
<rect x="202" y="322" width="118" height="24" rx="4" fill="#ffffff" stroke="#6a6a72" stroke-width="1.4"/>
<rect x="202" y="322" width="5" height="24" fill="#6a6a72"/>
<text x="211" y="337" font-size="8.2" fill="#2b2620">Alchemy</text>
<rect x="374" y="322" width="118" height="24" rx="4" fill="#ffffff" stroke="#6a6a72" stroke-width="1.4"/>
<rect x="374" y="322" width="5" height="24" fill="#6a6a72"/>
<text x="383" y="337" font-size="8.2" fill="#2b2620">Apothecary</text>
<rect x="546" y="322" width="118" height="24" rx="4" fill="#ffffff" stroke="#C6A024" stroke-width="1.4"/>
<rect x="546" y="322" width="5" height="24" fill="#C6A024"/>
<text x="555" y="337" font-size="8.2" fill="#2b2620">Infirmary</text>
<rect x="718" y="322" width="118" height="24" rx="4" fill="#ffffff" stroke="#C6A024" stroke-width="1.4"/>
<rect x="718" y="322" width="5" height="24" fill="#C6A024"/>
<text x="727" y="337" font-size="8.2" fill="#2b2620">Hospitaller</text>
<rect x="890" y="322" width="118" height="24" rx="4" fill="#fdf3d0" stroke="#C6A024" stroke-width="2.2"/>
<rect x="890" y="322" width="5" height="24" fill="#C6A024"/>
<text x="899" y="337" font-size="8.2" fill="#2b2620">Sacred Preceptory</text>
<polygon points="1000.0,330.4 1003.6,334.0 1000.0,337.6 996.4,334.0" fill="#8a6d1a"/>
<path d="M148,396 L195,396" fill="none" stroke="#f4efe4" stroke-width="4.6" opacity="1"/>
<path d="M148,396 L195,396" fill="none" stroke="#8f8672" stroke-width="1.6" opacity="0.95" marker-end="url(#arw-8f8672)"/>
<path d="M320,396 L367,396" fill="none" stroke="#f4efe4" stroke-width="4.6" opacity="1"/>
<path d="M320,396 L367,396" fill="none" stroke="#8f8672" stroke-width="1.6" opacity="0.95" marker-end="url(#arw-8f8672)"/>
<path d="M492,396 L539,396" fill="none" stroke="#f4efe4" stroke-width="4.6" opacity="1"/>
<path d="M492,396 L539,396" fill="none" stroke="#8f8672" stroke-width="1.6" opacity="0.95" marker-end="url(#arw-8f8672)"/>
<path d="M664,396 L711,396" fill="none" stroke="#f4efe4" stroke-width="4.6" opacity="1"/>
<path d="M664,396 L711,396" fill="none" stroke="#8f8672" stroke-width="1.6" opacity="0.95" marker-end="url(#arw-8f8672)"/>
<rect x="30" y="384" width="118" height="24" rx="4" fill="#ffffff" stroke="#6a6a72" stroke-width="1.4"/>
<rect x="30" y="384" width="5" height="24" fill="#6a6a72"/>
<text x="39" y="399" font-size="8.2" fill="#2b2620">Apiary</text>
<rect x="202" y="384" width="118" height="24" rx="4" fill="#ffffff" stroke="#6a6a72" stroke-width="1.4"/>
<rect x="202" y="384" width="5" height="24" fill="#6a6a72"/>
<text x="211" y="399" font-size="8.2" fill="#2b2620">Chandlery</text>
<rect x="374" y="384" width="118" height="24" rx="4" fill="#ffffff" stroke="#C6A024" stroke-width="1.4"/>
<rect x="374" y="384" width="5" height="24" fill="#C6A024"/>
<text x="383" y="399" font-size="8.2" fill="#2b2620">Reliquary Sanctum</text>
<rect x="546" y="384" width="118" height="24" rx="4" fill="#ffffff" stroke="#C6A024" stroke-width="1.4"/>
<rect x="546" y="384" width="5" height="24" fill="#C6A024"/>
<text x="555" y="399" font-size="8.2" fill="#2b2620">Pilgrimage Site</text>
<rect x="718" y="384" width="118" height="24" rx="4" fill="#fdf3d0" stroke="#C6A024" stroke-width="2.2"/>
<rect x="718" y="384" width="5" height="24" fill="#C6A024"/>
<text x="727" y="399" font-size="8.2" fill="#2b2620">Sepulchre of Truth</text>
<polygon points="828.0,392.4 831.6,396.0 828.0,399.6 824.4,396.0" fill="#8a6d1a"/>
<path d="M148,458 L195,458" fill="none" stroke="#f4efe4" stroke-width="4.6" opacity="1"/>
<path d="M148,458 L195,458" fill="none" stroke="#8f8672" stroke-width="1.6" opacity="0.95" marker-end="url(#arw-8f8672)"/>
<path d="M320,458 L367,458" fill="none" stroke="#f4efe4" stroke-width="4.6" opacity="1"/>
<path d="M320,458 L367,458" fill="none" stroke="#8f8672" stroke-width="1.6" opacity="0.95" marker-end="url(#arw-8f8672)"/>
<path d="M492,458 L516,458" fill="none" stroke="#f4efe4" stroke-width="4.6" opacity="1"/>
<path d="M492,458 L516,458" fill="none" stroke="#8f8672" stroke-width="1.6" opacity="0.95"/>
<path d="M516,458 L516,494" fill="none" stroke="#f4efe4" stroke-width="4.6" opacity="1"/>
<path d="M516,458 L516,494" fill="none" stroke="#8f8672" stroke-width="1.6" opacity="0.95"/>
<path d="M516,458 L540,458" fill="none" stroke="#f4efe4" stroke-width="4.6" opacity="1"/>
<path d="M516,458 L540,458" fill="none" stroke="#8f8672" stroke-width="1.6" opacity="0.95" marker-end="url(#arw-8f8672)"/>
<path d="M516,494 L1056,494" fill="none" stroke="#f4efe4" stroke-width="4.6" opacity="1"/>
<path d="M516,494 L1056,494" fill="none" stroke="#8f8672" stroke-width="1.6" opacity="0.95" marker-end="url(#arw-8f8672)"/>
<path d="M664,458 L688,458" fill="none" stroke="#f4efe4" stroke-width="4.6" opacity="1"/>
<path d="M664,458 L688,458" fill="none" stroke="#8f8672" stroke-width="1.6" opacity="0.95"/>
<path d="M688,458 L688,494" fill="none" stroke="#f4efe4" stroke-width="4.6" opacity="1"/>
<path d="M688,458 L688,494" fill="none" stroke="#8f8672" stroke-width="1.6" opacity="0.95"/>
<path d="M688,458 L712,458" fill="none" stroke="#f4efe4" stroke-width="4.6" opacity="1"/>
<path d="M688,458 L712,458" fill="none" stroke="#8f8672" stroke-width="1.6" opacity="0.95" marker-end="url(#arw-8f8672)"/>
<path d="M688,494 L1056,494" fill="none" stroke="#f4efe4" stroke-width="4.6" opacity="1"/>
<path d="M688,494 L1056,494" fill="none" stroke="#8f8672" stroke-width="1.6" opacity="0.95" marker-end="url(#arw-8f8672)"/>
<path d="M836,458 L883,458" fill="none" stroke="#f4efe4" stroke-width="4.6" opacity="1"/>
<path d="M836,458 L883,458" fill="none" stroke="#8f8672" stroke-width="1.6" opacity="0.95" marker-end="url(#arw-8f8672)"/>
<path d="M1008,458 L1055,458" fill="none" stroke="#f4efe4" stroke-width="4.6" opacity="1"/>
<path d="M1008,458 L1055,458" fill="none" stroke="#8f8672" stroke-width="1.6" opacity="0.95" marker-end="url(#arw-8f8672)"/>
<path d="M1180,458 L1204,458" fill="none" stroke="#f4efe4" stroke-width="4.6" opacity="1"/>
<path d="M1180,458 L1204,458" fill="none" stroke="#8f8672" stroke-width="1.6" opacity="0.95"/>
<path d="M1204,458 L1204,494" fill="none" stroke="#f4efe4" stroke-width="4.6" opacity="1"/>
<path d="M1204,458 L1204,494" fill="none" stroke="#8f8672" stroke-width="1.6" opacity="0.95"/>
<path d="M1204,494 L1228,494" fill="none" stroke="#f4efe4" stroke-width="4.6" opacity="1"/>
<path d="M1204,494 L1228,494" fill="none" stroke="#8f8672" stroke-width="1.6" opacity="0.95" marker-end="url(#arw-8f8672)"/>
<path d="M1204,458 L1400,458" fill="none" stroke="#f4efe4" stroke-width="4.6" opacity="1"/>
<path d="M1204,458 L1400,458" fill="none" stroke="#8f8672" stroke-width="1.6" opacity="0.95" marker-end="url(#arw-8f8672)"/>
<path d="M1180,494 L1227,494" fill="none" stroke="#f4efe4" stroke-width="4.6" opacity="1"/>
<path d="M1180,494 L1227,494" fill="none" stroke="#8f8672" stroke-width="1.6" opacity="0.95" marker-end="url(#arw-8f8672)"/>
<path d="M1352,494 L1367,494 Q1376,494 1376,485 L1376,467 Q1376,458 1385,458 L1399,458" fill="none" stroke="#f4efe4" stroke-width="4.6" opacity="1"/>
<path d="M1352,494 L1367,494 Q1376,494 1376,485 L1376,467 Q1376,458 1385,458 L1399,458" fill="none" stroke="#8f8672" stroke-width="1.6" opacity="0.95" marker-end="url(#arw-8f8672)"/>
<rect x="30" y="446" width="118" height="24" rx="4" fill="#ffffff" stroke="#6a6a72" stroke-width="1.4"/>
<rect x="30" y="446" width="5" height="24" fill="#6a6a72"/>
<text x="39" y="461" font-size="8.2" fill="#2b2620">Quarry</text>
<rect x="202" y="446" width="118" height="24" rx="4" fill="#ffffff" stroke="#6a6a72" stroke-width="1.4"/>
<rect x="202" y="446" width="5" height="24" fill="#6a6a72"/>
<text x="211" y="461" font-size="8.2" fill="#2b2620">Masonry</text>
<rect x="374" y="446" width="118" height="24" rx="4" fill="#ffffff" stroke="#6a6a72" stroke-width="1.4"/>
<rect x="374" y="446" width="5" height="24" fill="#6a6a72"/>
<text x="383" y="461" font-size="8.2" fill="#2b2620">Courtyard</text>
<rect x="546" y="446" width="118" height="24" rx="4" fill="#ffffff" stroke="#2E5A8C" stroke-width="1.4"/>
<rect x="546" y="446" width="5" height="24" fill="#2E5A8C"/>
<text x="555" y="461" font-size="8.2" fill="#2b2620">Market Square</text>
<rect x="718" y="446" width="118" height="24" rx="4" fill="#ffffff" stroke="#6a6a72" stroke-width="1.4"/>
<rect x="718" y="446" width="5" height="24" fill="#6a6a72"/>
<text x="727" y="461" font-size="8.2" fill="#2b2620">Weavery</text>
<rect x="890" y="446" width="118" height="24" rx="4" fill="#ffffff" stroke="#2E5A8C" stroke-width="1.4"/>
<rect x="890" y="446" width="5" height="24" fill="#2E5A8C"/>
<text x="899" y="461" font-size="8.2" fill="#2b2620">Artisan Workshop</text>
<rect x="1062" y="446" width="118" height="24" rx="4" fill="#ffffff" stroke="#2E5A8C" stroke-width="1.4"/>
<rect x="1062" y="446" width="5" height="24" fill="#2E5A8C"/>
<text x="1071" y="461" font-size="8.2" fill="#2b2620">Court Artists</text>
<rect x="1062" y="482" width="118" height="24" rx="4" fill="#ffffff" stroke="#1c1c20" stroke-width="1.4"/>
<rect x="1062" y="482" width="5" height="24" fill="#1c1c20"/>
<text x="1071" y="497" font-size="8.2" fill="#2b2620">Merchant Quarter</text>
<rect x="1234" y="482" width="118" height="24" rx="4" fill="#ffffff" stroke="#1c1c20" stroke-width="1.4"/>
<rect x="1234" y="482" width="5" height="24" fill="#1c1c20"/>
<text x="1243" y="497" font-size="8.2" fill="#2b2620">Money Lending</text>
<rect x="1406" y="446" width="118" height="24" rx="4" fill="#fdf3d0" stroke="#1c1c20" stroke-width="2.2"/>
<rect x="1406" y="446" width="5" height="24" fill="#1c1c20"/>
<text x="1415" y="461" font-size="8.2" fill="#2b2620">Aristocratic Court</text>
<polygon points="1516.0,454.4 1519.6,458.0 1516.0,461.6 1512.4,458.0" fill="#8a6d1a"/>
</svg>